<svg xmlns="http://www.w3.org/2000/svg" viewBox="0 0 504.44 116.56"><g id="레이어_2" data-name="레이어 2"><g id="Layer_1" data-name="Layer 1"><path d="M.17,14.49A10.79,10.79,0,0,0,3.6,6.57V.94h1V6.57a10.86,10.86,0,0,0,3.42,7.92V15.9A10.13,10.13,0,0,1,4.12,9.43,10.1,10.1,0,0,1,.17,15.9Zm7-6.71v-1H10.6V.45h1V16.78h-1v-9Zm7.05,9V.45h1.05V16.78Z"/><path d="M17.77,8.1c2.05-.72,4.54-2.68,4.54-5.22V.67h1.05V2.88c0,2.45,2.5,4.34,4.54,5V9.06c-2.11-.63-4.59-2.34-5.06-4.32-.47,2.07-3,3.85-5.07,4.5Zm4.28,2.76H29a3.12,3.12,0,0,1,3.4,3,3.13,3.13,0,0,1-3.4,3h-6.9a3.13,3.13,0,0,1-3.4-3A3.12,3.12,0,0,1,22.05,10.86Zm6.84,5a2.15,2.15,0,0,0,2.41-2,2.14,2.14,0,0,0-2.41-2H22.1a2.15,2.15,0,0,0-2.41,2,2.15,2.15,0,0,0,2.41,2Zm1.91-5.75V.45h1V4.2h2.38V5.26H31.84v4.82Z"/><path d="M35.2,15.79V14.73l12.32-.85v1Zm1-9.27V4.72c0-2.67,2.15-4.09,4.75-4.09s4.75,1.42,4.75,4.09v1.8c0,2.66-2.15,4.07-4.75,4.07S36.16,9.18,36.16,6.52Zm8.45,0V4.72c0-1.91-1.59-3-3.7-3s-3.7,1.14-3.7,3.05v1.8c0,1.89,1.6,3,3.7,3S44.61,8.41,44.61,6.52Zm4.17,10.26V.45h1V16.78Z"/><path d="M57.62,16.24v-1H73.4v1ZM58.3,3.49V2.43H65V0h1V2.43H72.7V3.49Zm4,1.75h6.46a3.2,3.2,0,1,1,0,6.36H62.28a3.2,3.2,0,1,1,0-6.36Zm6.35,5.31A2.34,2.34,0,0,0,71.2,8.41a2.34,2.34,0,0,0-2.57-2.13H62.38a2.3,2.3,0,0,0-2.56,2.13,2.3,2.3,0,0,0,2.56,2.14Z"/><path d="M75.08,9.88v-1H90.86v1Zm1.24-2.75V3.38H88.57V1.78H76.32v-1h13.3V4.43H77.37V6.09H89.71v1Zm0,9.65V11.69h13.3v5.09H88.57v-.56Zm1.05-1.1,11.2-.5V12.75H77.37Z"/><path d="M92.54,8.52V7.45h15.78V8.52Zm3.91-2.79A2.63,2.63,0,0,1,93.6,3.19,2.62,2.62,0,0,1,96.45.65h8a2.62,2.62,0,0,1,2.84,2.54,2.62,2.62,0,0,1-2.84,2.54ZM93.78,16.78V13H106V11.29H93.78v-1h13.3V14H94.83v1.77h12.51v1ZM104.29,4.66c1.08,0,1.92-.55,1.92-1.49s-.84-1.46-1.92-1.46H96.57c-1.08,0-1.92.54-1.92,1.46s.84,1.49,1.92,1.49Z"/><path d="M115.24,10.21v-1l4.26-.24V4.65h1V8.86l6.78-.36v1Zm8.51-3,.51-5.35h-8.17v-1h9.3L124.8,7.2ZM117,16.78v-5h1v4H130v1Zm11.55-3.62V.45h1.05V5.73H132v1h-2.37v6.39Z"/><path d="M133,7.44c2.11-.38,4.43-1.79,4.54-4.52V2.86h-4.37V1.8h4.37V0h1V1.8H143V2.86h-4.35v.06c.11,2.73,2.43,4.14,4.52,4.52V8.59c-2.27-.43-4.6-1.71-5.06-3.94-.43,2.23-2.77,3.51-5.06,3.94Zm1.05,9.34V12.84h12V11h-12V10h13v3.88h-12v1.89h12.33v1Zm12-7.72V.45h1.05V3.83h2.37v1h-2.37V9.06Z"/><path d="M150.47,4.09V3h4.14V.18h1V3h4.14v1Zm.31,8.17V9.69c0-2.47,1.91-4,4.35-4s4.35,1.51,4.35,4v2.57c0,2.47-1.89,4-4.35,4S150.78,14.73,150.78,12.26Zm7.65-.07V9.76a3.32,3.32,0,0,0-6.6,0v2.43a3.32,3.32,0,0,0,6.6,0Zm4.92,4.59V.45h1.05v7h2.51v1H164.4v8.26Z"/><path d="M167.62,16.24V15.18h6.47V7.65h1v7.53h8.26v1.06Zm12.77-3.8L181.14,2H168.77V.92h13.47l-.8,11.52Z"/><path d="M190.31,7.56h15.78v1H190.31ZM192.6,14v1.7h12.52v1H191.55V13h12.26V11.43H191.55v-1h13.3V14Zm11.05-10.4.17-1.86H191.61v-1h13.33l-.5,5.85h-1.05l.17-1.91H191.78v-1Z"/><path d="M208.4,16V7.65h7.46V2.3H208.4v-1h8.5V8.71h-7.45V14.8l8.83-.86v1Zm12.57.81V.45H222v7h2.51v1H222v8.26Z"/><path d="M225.86,12.06V4.75a4.53,4.53,0,0,1,9,0v7.31a4.53,4.53,0,0,1-9,0Zm8,.06V4.7a3.5,3.5,0,0,0-7,0v7.42a3.5,3.5,0,0,0,7,0Zm5.36,4.66V.45h1V16.78Z"/><path d="M252.08,6.14c0,2.56-2,3.87-4.38,3.87s-4.38-1.31-4.38-3.87V4.29c0-2.54,2-3.88,4.38-3.88s4.38,1.34,4.38,3.88v.45h4.61V.45h1.05V12.23h-1.05V5.8h-4.61Zm-6.7,9.6h12.69v1H244.33V11.36h1Zm-1-9.65C244.37,8,245.8,9,247.72,9S251,8,251,6.09V4.36c0-1.88-1.43-2.88-3.32-2.88s-3.35,1-3.35,2.88Z"/><path d="M260.15,16.24V15.18h15.78v1.06ZM261.39,2V.92h13.3V2Zm0,8.57v-6h13.23v1H262.44v4h12.43v1Z"/><path d="M277.89,15.79V14.73l12.33-.85v1Zm1-9.27V4.72c0-2.67,2.15-4.09,4.75-4.09s4.75,1.42,4.75,4.09v1.8c0,2.66-2.15,4.07-4.75,4.07S278.85,9.18,278.85,6.52Zm8.45,0V4.72c0-1.91-1.59-3-3.7-3s-3.7,1.14-3.7,3.05v1.8c0,1.89,1.61,3,3.7,3S287.3,8.41,287.3,6.52Zm4.17,10.26V.45h1V16.78Z"/><path d="M301.64,16V1.17h1.05V14.75l8.16-.87V15Zm12.37.81V.45h1.05V16.78Z"/><path d="M317.77,16.24v-1.1h15.78v1.1Zm.77-7.15c3.16-.14,6.58-2.59,6.58-5.34V2.11h-6.41v-1h13.9v1H326.2V3.75c0,2.75,3.44,5.2,6.58,5.34v1.05c-3.33-.15-6.4-2.25-7.12-4.61-.71,2.36-3.79,4.46-7.12,4.61Z"/><path d="M335.23,9.15V8.1H351V9.15Zm1.24-2.52V3.13h12.25V1.78H336.47v-1h13.3v3.4H337.52V5.56h12.34V6.63Zm0,10.15v-3.6h12.25V11.72H336.47V10.66h13.3v3.53H337.52v1.55H350v1Z"/><path d="M358.24,16v-1.1H361l-.47-11.7h1l.46,11.7h3.21l.45-11.7h1.05l-.47,11.7H369V16Zm.18-13.67v-1h10.44v1Zm12.71,14.48V.45h1V7.33h2.52V8.39h-2.52v8.39Z"/><path d="M375.88,5.55V4.16c0-2.47,2-3.75,4.38-3.75s4.38,1.28,4.38,3.75V5.55c0,2.48-2,3.74-4.38,3.74S375.88,8,375.88,5.55ZM388.73,17V11.88H376.58v-1h13.19V17ZM383.59,5.49V4.23c0-1.78-1.43-2.75-3.31-2.75s-3.35,1-3.35,2.75V5.49c0,1.78,1.43,2.74,3.35,2.74S383.59,7.27,383.59,5.49Zm5.14,4.41V.45h1V4.2h2.38v1h-2.38V9.9Z"/><path d="M393.16,4.09V3h4.14V.18h1.05V3h4.14v1Zm.32,8.17V9.69c0-2.47,1.9-4,4.34-4s4.35,1.51,4.35,4v2.57c0,2.47-1.88,4-4.35,4S393.48,14.73,393.48,12.26Zm7.64-.07V9.76a3.31,3.31,0,0,0-6.59,0v2.43a3.31,3.31,0,0,0,6.59,0Zm4.93,4.59V.45h1v7h2.52v1h-2.52v8.26Z"/><path d="M410.31,9.74V8.68h15.78V9.74Zm1.24-3.51V.5h1.05V5.19h12.34v1Zm0,10.55V11.47h1.05v4.27h12.51v1Z"/><path d="M434.33,16V1.26h8.29v1h-7.24V14.8l8.14-.86v1Zm12.38.81V.45h1.05V16.78Z"/><path d="M450.61,14.57a9.66,9.66,0,0,0,4.87-7.94V2.45h-4.33V1.4h9.7V2.45h-4.33V6.63a9.63,9.63,0,0,0,4.89,7.94V15.9A10.39,10.39,0,0,1,456,9.33a10.42,10.42,0,0,1-5.39,6.57Zm13.05,2.21V.45h1V7.33h2.51V8.39h-2.51v8.39Z"/><path d="M468.56,12.06V4.75a4.53,4.53,0,0,1,9,0v7.31a4.53,4.53,0,0,1-9,0Zm8,.06V4.7a3.5,3.5,0,0,0-6.95,0v7.42a3.5,3.5,0,0,0,6.95,0Zm5.36,4.66V.45h1V16.78Z"/><path d="M486.57,16V1.17h1.05V14.75l8.17-.87V15Zm12.38.81V7.9h-5.74v-1H499V.45H500V16.78Z"/><path d="M502.69,17.56l.33-2.85h1.42l-.83,2.85Z"/><path d="M0,41.37v-1H15.78v1Zm1-6.59v-1H7.28L6,38.83H4.85l1.1-4Zm.29,15V43h1V48.7H7v1.06Zm5.88-4.68V44h3.62V42.51h1V44h3.62v1Zm2.24.79h3.82a2,2,0,0,1,0,4H9.41a2,2,0,0,1,0-4ZM8.1,34.78v-1h6.55l-.86,5.09H12.73l.71-4Zm4.92,14a.94.94,0,1,0,0-1.87H9.62a.94.94,0,1,0,0,1.87Z"/><path d="M18.09,38.31V37c0-2.37,2.06-3.62,4.57-3.62s4.58,1.25,4.58,3.62v1.28c0,2.4-2,3.62-4.58,3.62S18.09,40.71,18.09,38.31ZM19,49.78v-6.5H32.51v6.5h-1v-.56Zm7.23-11.52V37.11c0-1.73-1.5-2.63-3.51-2.63s-3.54.9-3.54,2.63v1.15c0,1.71,1.51,2.61,3.54,2.61S26.19,40,26.19,38.26ZM20,48.68l11.45-.52V44.33H20Zm11.45-6.34V33.45h1v8.89Z"/><path d="M44.31,38.06v.07c0,2.4-2,3.62-4.38,3.62s-4.38-1.22-4.38-3.62V37c0-2.37,2-3.62,4.38-3.62s4.36,1.25,4.38,3.6h4.61V33.45h1v8.79h-1V38.06Zm-2.55,7V43h1.05v6.95H41.76v-.61l-5.46.61V43h1.05v2.07Zm1.5-8c0-1.73-1.43-2.63-3.31-2.63s-3.35.9-3.35,2.63v1c0,1.71,1.43,2.61,3.35,2.61s3.31-.9,3.31-2.61Zm-1.5,11.16V46.11H37.35v2.64ZM48,44.49a4.52,4.52,0,0,0,3.32,4.23v1.06c-1.8-.49-3.48-1.76-3.84-3.37a5.27,5.27,0,0,1-3.84,3.37V48.72a4.51,4.51,0,0,0,3.31-4.23V42.81H48Z"/><path d="M53,45.06V37.75a4.21,4.21,0,0,1,4.52-4.17,4.21,4.21,0,0,1,4.52,4.17v7.31a4.22,4.22,0,0,1-4.52,4.18A4.22,4.22,0,0,1,53,45.06Zm8,.06V37.7a3.5,3.5,0,0,0-6.94,0v7.42a3.18,3.18,0,0,0,3.47,3.06A3.18,3.18,0,0,0,61,45.12Zm5.36,4.66V33.45h1V49.78Z"/><path d="M75.39,41.32c2-.7,4.37-2.59,4.37-5.06V33.67h1v2.59c0,2.41,2.41,4.25,4.37,4.93v1.15c-2-.63-4.42-2.3-4.89-4.23-.45,2-2.86,3.71-4.89,4.36ZM80,43.71h7.1a3.1,3.1,0,1,1,0,6.16H80a3.1,3.1,0,1,1,0-6.16Zm7,5.12a2.06,2.06,0,1,0,0-4H80a2.06,2.06,0,1,0,0,4ZM84.38,37.88V36.82h4.56V33.45h1v9.63h-1v-5.2Z"/><path d="M92.85,41.12a5.28,5.28,0,0,0,4.54-5.24V35H93V34h9.77v1H98.44v.85A5.16,5.16,0,0,0,103,40.94v1.15c-2.29-.43-4.63-1.8-5.06-4.14-.44,2.45-2.78,3.87-5.07,4.32ZM97,43.68h7a3.11,3.11,0,1,1,0,6.19H97a3.11,3.11,0,1,1,0-6.19Zm7,5.15a2.08,2.08,0,1,0,0-4.11H97a2.08,2.08,0,1,0,0,4.11Zm1.9-5.78v-9.6h1v3.76h2.38v1h-2.38v4.79Z"/><path d="M110.31,37.09V36h4.14V33.18h1V36h4.13v1.05Zm.32,8.17V42.69c0-2.47,1.9-4,4.34-4s4.35,1.51,4.35,4v2.57c0,2.47-1.89,4-4.35,4S110.63,47.73,110.63,45.26Zm7.64-.07V42.76a3.32,3.32,0,0,0-6.6,0v2.43a3.32,3.32,0,0,0,6.6,0Zm4.92,4.59V33.45h1v7h2.52v1.05h-2.52v8.26Z"/><path d="M127.46,42.74V41.68h15.78v1.06Zm1.24-3.51V33.5h1.05v4.69h12.34v1Zm0,10.55V44.47h1.05v4.27h12.51v1Z"/><path d="M151.48,49V34.26h8.29v1h-7.24V47.8l8.13-.86v1Zm12.38.81V33.45h1V49.78Z"/><path d="M167.75,47.57a9.64,9.64,0,0,0,4.87-7.94V35.45H168.3V34.4H178v1.05h-4.33v4.18a9.63,9.63,0,0,0,4.89,7.94V48.9a10.36,10.36,0,0,1-5.41-6.57,10.44,10.44,0,0,1-5.4,6.57Zm13.06,2.21V33.45h1.05v6.88h2.51v1.06h-2.51v8.39Z"/><path d="M185.7,45.06V37.75a4.54,4.54,0,0,1,9.05,0v7.31a4.54,4.54,0,0,1-9.05,0Zm8,.06V37.7a3.5,3.5,0,0,0-6.95,0v7.42a3.5,3.5,0,0,0,6.95,0Zm5.36,4.66V33.45h1V49.78Z"/><path d="M203.72,49V34.17h1.05V47.75l8.17-.87V48Zm12.38.81V40.9h-5.74v-1h5.74V33.45h1.05V49.78Z"/><path d="M220.54,48c5-1.24,7.75-5.25,7.71-12.73h-7.63v-1h8.68v.92c0,8.32-3.21,12.76-8.76,14ZM233,49.78V33.45H234v6.88h2.72v1.06H234v8.39Z"/><path d="M243,49.26v-1l5.41-.37V43.1h1.05v4.65l5.87-.4v1ZM244,42V33.92h9.22V35h-8.17v6h8.34v1Zm12.55,7.74V33.45h1.05V49.78Z"/><path d="M260.15,49.24V48.18h6.48V40.65h1.05v7.53h8.25v1.06Zm12.78-3.8L273.68,35H261.31V33.92h13.47L274,45.44Z"/><path d="M277.75,47.57a9.64,9.64,0,0,0,4.87-7.94V35.45h-4.33V34.4H288v1.05h-4.33v4.18a9.63,9.63,0,0,0,4.89,7.94V48.9a10.36,10.36,0,0,1-5.41-6.57,10.44,10.44,0,0,1-5.4,6.57Zm13.06,2.21V33.45h1.05v6.88h2.51v1.06h-2.51v8.39Z"/><path d="M300.49,36.1V35h4.62V33h1.05v2h4.63V36.1Zm3,1.2h4.25a2.53,2.53,0,1,1,0,5.06h-4.25a2.53,2.53,0,1,1,0-5.06Zm-1.85,12.48V43.5h1.05v1.85h10.93V43.5h1.05v6.28h-1.05v-.54Zm5.8-8.46c1.15,0,1.81-.67,1.81-1.48s-.66-1.47-1.81-1.47H303.8c-1.13,0-1.81.64-1.81,1.47s.68,1.48,1.81,1.48Zm-4.75,7.35,10.93-.47V46.4H302.72Zm10.93-6V33.45h1.05V37.2h2.37v1H314.7v4.43Z"/><path d="M319.1,49V34.17h1V47.75l8.17-.87V48Zm12.37.81V33.45h1V49.78Z"/><path d="M336.28,49V34.26h8.27v1h-7.22V47.8l8-.86v1Zm11.66.81V33.45H349v6.88h3v1.06h-3v8.39Z"/><path d="M352.87,49.17V47.82h1.3v1.35Z"/><path d="M.49,71.24V70c0-2.37,2-3.62,4.38-3.62S9.25,67.66,9.25,70v1.21c0,2.39-2,3.62-4.38,3.62S.49,73.63.49,71.24ZM1.1,82.78v-1H4.52l-.44-3.86h1l.46,3.86H10.3l.44-3.86H11.8l-.45,3.86h3.44v1Zm.17-5.56v-1H14.61v1Zm6.93-6V70.11c0-1.73-1.43-2.63-3.31-2.63s-3.35.9-3.35,2.63v1.08C1.54,72.9,3,73.8,4.89,73.8S8.2,72.9,8.2,71.19Zm5.14,4V66.45h1v3.44h2.38v1H14.38v4.31Z"/><path d="M17.46,82.24V81.18H33.24v1.06ZM22.7,76a4.6,4.6,0,0,1,0-9.18H28A4.6,4.6,0,0,1,28,76ZM27.92,75a3.53,3.53,0,0,0,0-7.06H22.8a3.53,3.53,0,0,0,0,7.06Z"/><path d="M34.92,82.24V81.18h7.37V77.24h1v3.94H50.7v1.06Zm1.24-6.08V71H48.41V68H36.16V66.92h13.3V72H37.21v3.08H49.64v1.07Z"/><path d="M58.67,82V67.17h1V80.75l8.5-.92v1.1Zm11.66.81V66.45h1v6.88h3v1.06h-3v8.39Z"/><path d="M75.71,78.06V70.75a4.33,4.33,0,0,1,8.65,0v7.31a4.33,4.33,0,0,1-8.65,0Zm7.61.06V70.7a3.29,3.29,0,0,0-6.57,0v7.42a3.29,3.29,0,0,0,6.57,0Zm5,4.66V66.45h1v6.88h2.52v1.06H89.32v8.39Z"/><path d="M93.08,81c5-1.24,7.75-5.25,7.71-12.73H93.17v-1h8.67v.92c0,8.32-3.21,12.76-8.76,14Zm12.45,1.75V66.45h1v6.88h2.73v1.06h-2.73v8.39Z"/><path d="M110.63,78.06V70.75a4.33,4.33,0,0,1,8.65,0v7.31a4.33,4.33,0,0,1-8.65,0Zm7.61.06V70.7a3.29,3.29,0,0,0-6.57,0v7.42a3.29,3.29,0,0,0,6.57,0Zm5,4.66V66.45h1v4.3h2.48v1h-2.48v4.68h2.48v1h-2.48v5.26Z"/><path d="M132.87,69.1V68h4.63V66h1v2h4.63V69.1Zm3,1.08h4.33a2.38,2.38,0,1,1,0,4.75h-4.33a2.38,2.38,0,1,1,0-4.75Zm-1.79,12.6V79h12V77.34h-12v-1h13V80h-12v1.71h12.33v1Zm6-8.89c1,0,1.64-.58,1.64-1.34s-.61-1.33-1.64-1.33h-4c-1,0-1.64.6-1.64,1.33s.61,1.34,1.64,1.34Zm6,1.47V66.45h1.05V70.2h2.37v1h-2.37v4.12Z"/><path d="M156.72,82V67.26H165v1h-7.24V80.8l8.13-.86v1Zm12.38.81V66.45h1V82.78Z"/><path d="M173,80.57a9.64,9.64,0,0,0,4.87-7.94V68.45h-4.33v-1h9.71v1h-4.33v4.18a9.63,9.63,0,0,0,4.89,7.94V81.9a10.36,10.36,0,0,1-5.41-6.57A10.44,10.44,0,0,1,173,81.9Zm13.06,2.21V66.45h1v6.88h2.51v1.06H187.1v8.39Z"/><path d="M190.94,72.14V70.29c0-2.54,2.06-3.88,4.58-3.88s4.57,1.34,4.57,3.88v1.85c0,2.56-2,3.87-4.57,3.87S190.94,74.7,190.94,72.14Zm1,10.64V77.36H193v4.38h12.69v1ZM199,72.09V70.36c0-1.88-1.5-2.88-3.51-2.88s-3.54,1-3.54,2.88v1.73C192,74,193.51,75,195.53,75S199,74,199,72.09Zm5.27,6.14V66.45h1.05V78.23Z"/><path d="M208.05,81.79V80.73l12.33-.85v1.05Zm1-9.27v-1.8c0-2.67,2.15-4.09,4.75-4.09s4.75,1.42,4.75,4.09v1.8c0,2.66-2.15,4.07-4.75,4.07S209,75.18,209,72.52Zm8.45,0v-1.8c0-1.91-1.59-3-3.7-3s-3.7,1.14-3.7,3v1.8c0,1.89,1.61,3,3.7,3S217.46,74.41,217.46,72.52Zm4.17,10.26V66.45h1.05V82.78Z"/><path d="M231,73.27c4.79-.14,7.91-1.33,7.91-5.36H231.1V66.85H240v.75c0,5.13-3.84,6.59-9,6.72Zm1,9.51V78.66h12.22v-2H232v-1h13.27v4H233v2.07h12.55v1Zm12.22-8.1V66.45h1.05v8.23Z"/><path d="M247.93,74.52V73.45h15.78v1.07Zm3.91-2.79a2.56,2.56,0,1,1,0-5.08h8a2.56,2.56,0,1,1,0,5.08Zm-2.67,11V79h12.25V77.29H249.17v-1h13.3V80H250.22v1.77h12.51v1Zm10.51-12.12c1.08,0,1.92-.55,1.92-1.49s-.84-1.46-1.92-1.46H252c-1.08,0-1.92.54-1.92,1.46s.84,1.49,1.92,1.49Z"/><path d="M271.26,74.21V66.76h1v2.46h6.41V66.76h1.05v7.45Zm.38,8.57V78.66H277V77h-5.4V76h6.44v3.7h-5.39v2l6.07-.45v1Zm.66-9.61h6.41v-2.9H272.3ZM279.11,77V76H285v7h-1V77Zm4.86-2V66.45h1v3.49h2.38v1H285v4.07Z"/><path d="M298.58,73.53V66.45h1.05V82.78h-1.05V74.57h-3.72c-1.05,4.32-3.26,6.64-6.32,7.58V81c4.09-1.42,6-5.69,5.94-12.73h-5.85v-1h6.9v.83a31,31,0,0,1-.44,5.44Zm3.68-7.08h1.05V82.78h-1.05Z"/><path d="M311.56,82V67.19h1v5.06h6.65V67.19h1.05V82h-1.05v-.92Zm1-1.21,6.65-.77V73.31H312.6Zm12,2V66.45h1.05V82.78Z"/><path d="M335.61,83V77.6h-7.36V76.53H344V77.6h-7.37V83ZM329,73.78c3.13-.15,6.5-2.27,6.59-4.83v-.11h-6.41v-1h6.42V66h1.05v1.8h6.42v1h-6.4V69c.1,2.56,3.45,4.68,6.58,4.83v1.06c-3.34-.14-6.41-2.11-7.12-4.36-.72,2.25-3.79,4.22-7.13,4.36Z"/><path d="M345.71,75.74V74.68h15.78v1.06ZM347,72.23V66.5h1v4.69h12.34v1Zm0,10.55V77.47h1v4.27h12.52v1Z"/><path d="M1.05,115.06V100.15H9.69v1.52H2.79v11.7l7.88-.76v1.51Zm12.2.76V99.4H15v16.42Z"/><path d="M17.56,113.06a8.84,8.84,0,0,0,4.49-7.83v-3.46H18v-1.51h9.81v1.51h-4v3.46a8.84,8.84,0,0,0,4.48,7.83v2a9.93,9.93,0,0,1-5.36-6,9.93,9.93,0,0,1-5.36,6Zm12.64,2.76V99.4H32v6.73h2.34v1.51H32v8.18Z"/><path d="M35.44,111.1v-7.31c0-2.52,2-4.23,4.63-4.23s4.63,1.71,4.63,4.23v7.31c0,2.52-2,4.23-4.63,4.23S35.44,113.62,35.44,111.1Zm7.51.09V103.7a2.63,2.63,0,0,0-2.88-2.63,2.63,2.63,0,0,0-2.88,2.63v7.49a2.62,2.62,0,0,0,2.88,2.63A2.62,2.62,0,0,0,43,111.19Zm5.43,4.63V99.4h1.74v16.42Z"/><path d="M53.32,115.06v-15h1.75v13.22l8-.76v1.6Zm12.2.76v-8.66H60.13v-1.52h5.39V99.4h1.75v16.42Z"/><path d="M69.61,116.56l.39-3.44h2.06l-1,3.44Z"/><path d="M80.86,106.76a4.84,4.84,0,0,0,4.22-4.93v-.44H81V99.88h9.85v1.51h-4v.44a4.72,4.72,0,0,0,4.22,4.75v1.66c-2.29-.4-4.5-1.57-5.1-3.71-.61,2.25-2.82,3.47-5.09,3.89ZM85,109.59h7.27a3.17,3.17,0,1,1,0,6.32H85a3.17,3.17,0,1,1,0-6.32Zm7.16,4.8a1.65,1.65,0,1,0,0-3.29H85.1a1.65,1.65,0,1,0,0,3.29ZM93.46,109V99.4h1.75V103h2.23v1.52H95.21V109Z"/><path d="M98.91,115.06V100.15h8.61v1.52h-6.86v11.7l7.64-.76v1.51Zm11.45.76V99.4h1.75v6.73h2.79v1.51h-2.79v8.18Z"/><path d="M122.58,112.5v-3.65H115.5v-1.51h15.85v1.51h-7v3.65Zm-3.24-6.59a3.2,3.2,0,0,1,0-6.37h8.17a3.2,3.2,0,0,1,0,6.37Zm-2.76,9.91v-5.1h1.75v3.58h12.2v1.52Zm10.68-11.42a1.49,1.49,0,0,0,1.43-1.69,1.47,1.47,0,0,0-1.43-1.66h-7.68a1.47,1.47,0,0,0-1.43,1.66c0,1.06.61,1.69,1.43,1.69Z"/><path d="M138.86,104.13V103c0-2.37,2.06-3.62,4.57-3.62S148,100.66,148,103v1.1c0,2.4-2,3.62-4.58,3.62S138.86,106.53,138.86,104.13Zm.87,11.65v-7h1.05V111h11.45v-2.18h1.05v7h-1.05v-.56Zm7.23-11.7v-1c0-1.73-1.5-2.63-3.51-2.63s-3.54.9-3.54,2.63v1c0,1.71,1.51,2.61,3.54,2.61S147,105.79,147,104.08Zm-6.18,10.6,11.45-.5V112H140.78ZM152.23,108v-8.5h1.05V108Z"/><path d="M157,115v-14.8h1v13.58l8.17-.87V114Zm12.37.81V99.45h1.05v16.33Z"/><path d="M174.2,115V100.26h8.27v1h-7.22v12.5l8-.86v1Zm11.66.81V99.45h1v6.88h3v1.06h-3v8.39Z"/><path d="M190.79,115.17v-1.35h1.3v1.35Z"/></g></g></svg>