<svg xmlns="http://www.w3.org/2000/svg" viewBox="0 0 576.84 54.1"><g id="레이어_2" data-name="레이어 2"><g id="Layer_1" data-name="Layer 1"><path d="M4.67,42.07H0V2.34H3.56l.7,1,20.22,29,.06-27.64V2.34h4.67V4.67l-.06,35.06v2.34H25.59l-.7-1-20.22-29v30Z"/><path d="M40.84,18.52A12,12,0,0,1,58.6,17.41,13.82,13.82,0,0,1,63.1,28a14.18,14.18,0,0,1-3.45,9.53,12,12,0,0,1-17.76,1.11A13.83,13.83,0,0,1,37.39,28,14.18,14.18,0,0,1,40.84,18.52Zm2.92,15.19a7.47,7.47,0,0,0,6.49,3.68,7.26,7.26,0,0,0,4.9-1.87A9.46,9.46,0,0,0,58.43,28a10.06,10.06,0,0,0-1.7-5.66,7.46,7.46,0,0,0-6.48-3.68,7.28,7.28,0,0,0-4.91,1.87A9.46,9.46,0,0,0,42.07,28,10.06,10.06,0,0,0,43.76,33.71Z"/><path d="M71.28,37.45H76v4.73H71.28V37.45Z"/><path d="M84.42,5.84V1.17h21.74l-2.1,3.56L97.57,15.54q2.16.06,4.79,2.92a14.8,14.8,0,0,1,4,10.17A13.52,13.52,0,0,1,103,37.68a12.09,12.09,0,0,1-9.52,4.45,13.13,13.13,0,0,1-7.07-1.93,10.22,10.22,0,0,1-4.91-7.13L81,30.32h4.73l.29,1.93a5.79,5.79,0,0,0,1,2.28,7.49,7.49,0,0,0,6.43,2.92,7.66,7.66,0,0,0,5-1.81,8.71,8.71,0,0,0,3.21-7,8.4,8.4,0,0,0-1.58-5,7.68,7.68,0,0,0-6.6-3.44H89.39l2.1-3.57L98,5.84H84.42Z"/><path d="M138.47,16.36V14h4.67v3.22a12,12,0,0,1,16.54.17A13.82,13.82,0,0,1,164.18,28a14.18,14.18,0,0,1-3.45,9.53,11.84,11.84,0,0,1-9.41,4.5,12,12,0,0,1-8.18-3.22V54.1h-4.67V16.36Zm6.37,17.35a7.45,7.45,0,0,0,6.48,3.68,7.28,7.28,0,0,0,4.91-1.87A9.45,9.45,0,0,0,159.5,28a10.05,10.05,0,0,0-1.69-5.66,7.43,7.43,0,0,0-6.43-3.68,7.58,7.58,0,0,0-4.91,1.81A9.85,9.85,0,0,0,143.14,28,10.07,10.07,0,0,0,144.84,33.71Z"/><path d="M171.19,0h4.67V42.07h-4.67V0Z"/><path d="M183.57,18.52A11.84,11.84,0,0,1,193,14a12,12,0,0,1,8.18,3.22V14h4.67V42.07h-4.67V38.85A12.21,12.21,0,0,1,193,42.07a11.89,11.89,0,0,1-8.36-3.39A13.82,13.82,0,0,1,180.13,28,14.17,14.17,0,0,1,183.57,18.52Zm2.92,15.19A7.47,7.47,0,0,0,193,37.39a7.28,7.28,0,0,0,4.91-1.87A9.45,9.45,0,0,0,201.16,28a10.06,10.06,0,0,0-1.7-5.66A7.45,7.45,0,0,0,193,18.7a7.28,7.28,0,0,0-4.91,1.87A9.46,9.46,0,0,0,184.8,28,10.06,10.06,0,0,0,186.49,33.71Z"/><path d="M237.44,42.13h-4.61l-.06-2.34-.06-13.67a8.31,8.31,0,0,0-1.11-4.21,6,6,0,0,0-5.32-3.21A5.76,5.76,0,0,0,222.66,20a7.4,7.4,0,0,0-2.8,6.14v16h-4.68V14h4.68v2.22A10.69,10.69,0,0,1,226.28,14a10.23,10.23,0,0,1,7,2.69,11.81,11.81,0,0,1,4.14,9.41V39.73Z"/><path d="M268.12,36.58a12.9,12.9,0,0,1-10.87,5.49,12.09,12.09,0,0,1-8.42-3.39A13.92,13.92,0,0,1,244.39,28a14.4,14.4,0,0,1,3.33-9.46A12,12,0,0,1,257.25,14a11.85,11.85,0,0,1,8.35,3.39A13.82,13.82,0,0,1,270.1,28v2.34H249.3a9.9,9.9,0,0,0,1.41,3.27,7.47,7.47,0,0,0,6.54,3.74,8.64,8.64,0,0,0,7.13-3.62Zm-2.69-10.87A6.11,6.11,0,0,0,263.85,22a8.29,8.29,0,0,0-6.6-3.33,7.24,7.24,0,0,0-3.45.87,8.68,8.68,0,0,0-4.5,6.14Z"/><path d="M282.2,33.83c0,2.3,1.46,3.49,4.26,3.56h2.34v4.68h-2.34a13.51,13.51,0,0,1-3.1-.35q-5.83-1.35-5.84-7.83V18.7h-3.91V14h3.91V7.89l.06-2.28h4.73L282.25,8V14h6.55V18.7h-6.55Z"/><path d="M317.83,15.89h4.68v4.73h-4.68V15.89Zm0,18.64h4.68v4.73h-4.68V34.53Z"/><path d="M350.14,2.34h4.79l.41,1.81,6,27.4L371.94,3.86l.52-1.52h3.27l.53,1.52,10.58,27.69,6-27.4.41-1.81h4.79l-.64,2.86L389.7,40.26l-.41,1.81h-3.51l-.52-1.52L374.1,11.28,362.94,40.55l-.53,1.52h-3.5l-.41-1.81L350.79,5.2Z"/><path d="M424.7,36.58a12.9,12.9,0,0,1-10.87,5.49,12.09,12.09,0,0,1-8.42-3.39A13.92,13.92,0,0,1,401,28a14.4,14.4,0,0,1,3.33-9.46A12,12,0,0,1,413.83,14a11.85,11.85,0,0,1,8.35,3.39A13.82,13.82,0,0,1,426.68,28v2.34h-20.8a10.09,10.09,0,0,0,1.4,3.27,7.5,7.5,0,0,0,6.55,3.74A8.64,8.64,0,0,0,421,33.77ZM422,25.71A6.11,6.11,0,0,0,420.43,22a8.29,8.29,0,0,0-6.6-3.33,7.24,7.24,0,0,0-3.45.87,8.68,8.68,0,0,0-4.5,6.14Z"/><path d="M433.69,2.34V0h4.68V17.24A12.19,12.19,0,0,1,446.55,14a11.85,11.85,0,0,1,8.35,3.39A13.82,13.82,0,0,1,459.4,28,14.18,14.18,0,0,1,456,37.57a11.82,11.82,0,0,1-9.4,4.5,12,12,0,0,1-8.18-3.22v3.22h-4.68V2.34ZM440,33.71a7.52,7.52,0,0,0,6.55,3.68,7.26,7.26,0,0,0,4.9-1.87A9.46,9.46,0,0,0,454.73,28a10.06,10.06,0,0,0-1.7-5.66,7.48,7.48,0,0,0-11.39-1.81,9.53,9.53,0,0,0-3.27,7.53A10,10,0,0,0,440,33.71Z"/><path d="M511.52,13.44a5.37,5.37,0,0,0-1.47-3.68A8.79,8.79,0,0,0,503.22,7a10,10,0,0,0-4.73,1.17q-3.57,1.88-3.57,5.26a3.05,3.05,0,0,0,.29,1.23q1,1.92,6.61,4.08c4.63,1.84,7.42,3,8.35,3.39q7.06,3.57,7.07,8.83a9.92,9.92,0,0,1-3.15,6.89,14.83,14.83,0,0,1-10.87,4.21,15.63,15.63,0,0,1-9.88-3.22Q489.2,35.52,489.2,31h4.67a5.43,5.43,0,0,0,1.75,3.74,10.66,10.66,0,0,0,7.6,2.68,12.33,12.33,0,0,0,5.55-1.28q3.8-1.94,3.8-5.14a2.72,2.72,0,0,0-.35-1.29c-.67-1.32-2.89-2.73-6.66-4.21q-6.9-2.68-8.24-3.33-7.08-3.5-7.07-8.7a10,10,0,0,1,2.8-6.9,13.15,13.15,0,0,1,10.17-4.2A13.79,13.79,0,0,1,512,5.26a10.08,10.08,0,0,1,4.21,8.18Z"/><path d="M523.38,10.46V5.78h4.73v4.68h-4.73Zm0,3.56h4.67V42.07h-4.67V14Z"/><path d="M541,33.83q.06,3.45,4.27,3.56h2.33v4.68h-2.33a13.44,13.44,0,0,1-3.1-.35q-5.85-1.35-5.84-7.83V18.7h-3.92V14h3.92V7.89l.06-2.28h4.73L541.08,8V14h6.54V18.7h-6.54Z"/><path d="M574.85,36.58A12.9,12.9,0,0,1,564,42.07a12.06,12.06,0,0,1-8.41-3.39A13.92,13.92,0,0,1,551.13,28a14.4,14.4,0,0,1,3.33-9.46,12.12,12.12,0,0,1,17.88-1.17A13.82,13.82,0,0,1,576.84,28v2.34H556a10.09,10.09,0,0,0,1.4,3.27A7.47,7.47,0,0,0,564,37.39a8.64,8.64,0,0,0,7.13-3.62Zm-2.69-10.87A6,6,0,0,0,570.58,22,8.29,8.29,0,0,0,564,18.7a7.17,7.17,0,0,0-3.44.87,8.68,8.68,0,0,0-4.5,6.14Z"/></g></g></svg>