<svg xmlns="http://www.w3.org/2000/svg" viewBox="0 0 13 82.44"><g id="레이어_2" data-name="레이어 2"><g id="Layer_1" data-name="Layer 1"><path d="M0,6.85H13v.76H7.38V9.79H13v.76H0V9.79H6.53V7.61H0ZM.64,0H12.38V.76H8.32V4.52h4.06v.76H.64V4.52h.7Zm1,.76.56,3.76H7.48V.76Z"/><path d="M0,22.79H7.05V18.63h.83v4.16H13v.75H0Zm.64-8.95H12.4v.75H1.62L2.3,20.5H1.43Z"/><path d="M0,41.13H13v.75H0Zm.64-9.56H7.25V37H11.5V31.57h.82v6.22H6.42V32.33H1.57l.69,6.45H1.43Z"/><path d="M0,54.36H13v.75H0Zm.64-9H12.32v6H11.5V46.17H1.57l.69,5.88H1.43Z"/><path d="M0,67.42H13v.76H7.51V70H6.66V68.18H0ZM1.76,58a7.73,7.73,0,0,0,6.3,3.52h3.32V58.38h.83v7h-.83V62.26H8.06a7.7,7.7,0,0,0-6.3,3.54H.7a8.13,8.13,0,0,1,5.22-3.92A8.1,8.1,0,0,1,.7,58Z"/><path d="M0,72.5H4.3v.76H.83v9.18H0Zm3.62,8.94H13v.76H3.62Zm4.83-9.67H9.92a3.32,3.32,0,0,1,0,6.62H8.45a3.32,3.32,0,0,1,0-6.62Zm0,5.86H9.87a2.57,2.57,0,0,0,0-5.1H8.49a2.57,2.57,0,0,0,0,5.1Z"/></g></g></svg>