<svg xmlns="http://www.w3.org/2000/svg" viewBox="0 0 281.9 48.79"><defs><style>.cls-1{fill:#fff;}.cls-2{fill:#ff5200;}</style></defs><g id="레이어_2" data-name="레이어 2"><g id="Layer_1" data-name="Layer 1"><rect class="cls-1" y="16.81" width="281.9" height="31.98"/><path class="cls-2" d="M28.5,39.83q-3.57,5.78-9.9,5.84a10.42,10.42,0,0,1-7.77-3.62A16.2,16.2,0,0,1,6.57,30.44,17.09,17.09,0,0,1,9.76,20.11q3.59-4.89,8.84-4.89a11.2,11.2,0,0,1,10,5.46l-3.69,2.91A6.92,6.92,0,0,0,18.6,20.3a6.11,6.11,0,0,0-4.53,2,10.88,10.88,0,0,0-3,8.11,12.61,12.61,0,0,0,1.45,6q2.25,4.13,6.1,4.12a7.63,7.63,0,0,0,6.32-3.68Z"/><path class="cls-2" d="M39.3,0h4.48V45.67H39.3V0Z"/><path class="cls-2" d="M52.9,11.35V6.28h4.53v5.07H52.9Zm0,3.87h4.47V45.67H52.9V15.22Z"/><path class="cls-2" d="M88.26,39.83q-3.58,5.78-9.91,5.84a10.42,10.42,0,0,1-7.77-3.62,16.2,16.2,0,0,1-4.26-11.61,17.09,17.09,0,0,1,3.19-10.33q3.58-4.89,8.84-4.89a11.2,11.2,0,0,1,10,5.46l-3.69,2.91a6.92,6.92,0,0,0-6.27-3.29,6.11,6.11,0,0,0-4.53,2,10.88,10.88,0,0,0-3,8.11,12.51,12.51,0,0,0,1.46,6q2.23,4.13,6.09,4.12a7.65,7.65,0,0,0,6.33-3.68Z"/><path class="cls-2" d="M103.53,33V45.67H99.05V0h4.48V27.91h.78l11.08-12,.67-.7h6.49l-4,4.38L108.45,30.44l10.07,10.85,4,4.38h-6.49l-.67-.7L104.31,33Z"/><path class="cls-2" d="M175,19.54q3-4.32,7.61-4.32a8.74,8.74,0,0,1,6.15,2.6,12.74,12.74,0,0,1,3.81,9.58V43.13l.05,2.6h-4.42l0-2.54-.06-15.79a9.24,9.24,0,0,0-.84-3.87c-1.08-2.16-2.63-3.23-4.64-3.23a4.69,4.69,0,0,0-3,1.14,7.36,7.36,0,0,0-2.47,6V43.13l.06,2.6h-4.42l-.06-2.54,0-13.25V27.4a9.24,9.24,0,0,0-.84-3.87c-1.08-2.16-2.63-3.23-4.64-3.23a4.67,4.67,0,0,0-3,1.14,7.36,7.36,0,0,0-2.47,6V45.67h-4.47V15.22h4.47v2a8.94,8.94,0,0,1,5.49-2q4.58.13,7.72,4.44S175,19.62,175,19.54Z"/><path class="cls-2" d="M225.66,39.7q-3.91,6-10.41,6A10.88,10.88,0,0,1,207.2,42,16.11,16.11,0,0,1,203,30.44a17,17,0,0,1,3.18-10.27q3.7-5,9.12-5a10.69,10.69,0,0,1,8,3.68,16,16,0,0,1,4.31,11.54V33H207.65A11.63,11.63,0,0,0,209,36.53q2.34,4.06,6.26,4.06a8,8,0,0,0,6.83-3.93Zm-2.57-11.79a7.17,7.17,0,0,0-1.51-4c-1.76-2.41-3.86-3.61-6.33-3.61a6.23,6.23,0,0,0-3.3.95,9.39,9.39,0,0,0-4.3,6.66Z"/><path class="cls-2" d="M235.67,32.54V27.46h14.55v5.08H235.67Z"/><path class="cls-2" d="M261.69,2.54h4.48V36.15h-4.48V2.54Zm0,38.12h4.48v5.13h-4.48V40.66Z"/></g></g></svg>