<svg xmlns="http://www.w3.org/2000/svg" viewBox="0 0 342.82 117.49"><defs><style>.cls-1{fill:#fff;opacity:0.8;}.cls-2{fill:#ffde00;}</style></defs><g id="레이어_2" data-name="레이어 2"><g id="Layer_1" data-name="Layer 1"><rect class="cls-1" width="342.82" height="117.49" rx="58.75"/><path class="cls-2" d="M63.54,75.68q-3.57,5.77-9.9,5.84a10.42,10.42,0,0,1-7.77-3.62,16.2,16.2,0,0,1-4.26-11.61A17.09,17.09,0,0,1,44.8,56q3.59-4.89,8.84-4.89a11.19,11.19,0,0,1,10,5.46l-3.69,2.91a6.92,6.92,0,0,0-6.27-3.29,6.09,6.09,0,0,0-4.53,2,10.88,10.88,0,0,0-3,8.11,12.61,12.61,0,0,0,1.45,6c1.49,2.75,3.53,4.12,6.1,4.12A7.63,7.63,0,0,0,60,72.76Z"/><path class="cls-2" d="M74.34,35.85h4.48V81.52H74.34V35.85Z"/><path class="cls-2" d="M87.94,47.2V42.13h4.53V47.2H87.94Zm0,3.87h4.47V81.52H87.94V51.07Z"/><path class="cls-2" d="M123.29,75.68q-3.57,5.77-9.9,5.84a10.42,10.42,0,0,1-7.77-3.62,16.2,16.2,0,0,1-4.26-11.61A17.09,17.09,0,0,1,104.55,56q3.58-4.89,8.84-4.89a11.18,11.18,0,0,1,10,5.46l-3.69,2.91a6.92,6.92,0,0,0-6.27-3.29,6.11,6.11,0,0,0-4.53,2,10.88,10.88,0,0,0-3,8.11,12.61,12.61,0,0,0,1.45,6q2.25,4.13,6.1,4.12a7.63,7.63,0,0,0,6.32-3.68Z"/><path class="cls-2" d="M138.57,68.83V81.52h-4.48V35.85h4.48V63.76h.78l11.08-12,.67-.7h6.49l-4,4.38L143.49,66.29l10.07,10.85,4,4.38H151.1l-.67-.7-11.08-12Z"/><path class="cls-2" d="M210.07,55.38q3-4.31,7.61-4.31a8.74,8.74,0,0,1,6.15,2.6,12.74,12.74,0,0,1,3.81,9.58V79l.05,2.6h-4.42L223.22,79l-.06-15.79a9.24,9.24,0,0,0-.84-3.87c-1.08-2.16-2.63-3.23-4.64-3.23a4.67,4.67,0,0,0-3,1.14,7.36,7.36,0,0,0-2.47,6V79l.06,2.6h-4.42L207.77,79l-.05-13.25V63.25a9.24,9.24,0,0,0-.84-3.87c-1.08-2.16-2.63-3.23-4.64-3.23a4.71,4.71,0,0,0-3,1.14,7.38,7.38,0,0,0-2.46,6V81.52h-4.47V51.07h4.47v2a8.88,8.88,0,0,1,5.49-2q4.57.13,7.72,4.44S210,55.47,210.07,55.38Z"/><path class="cls-2" d="M260.7,75.55q-3.92,6-10.41,6a10.88,10.88,0,0,1-8-3.68A16.11,16.11,0,0,1,238,66.29,17,17,0,0,1,241.17,56q3.71-5,9.12-5a10.71,10.71,0,0,1,8,3.68,16,16,0,0,1,4.31,11.54v2.54H242.68A11.91,11.91,0,0,0,244,72.38q2.34,4.07,6.26,4.06a8,8,0,0,0,6.83-3.93Zm-2.57-11.79a7.17,7.17,0,0,0-1.51-4c-1.76-2.41-3.86-3.61-6.33-3.61a6.23,6.23,0,0,0-3.3,1c-2.24,1.31-3.67,3.53-4.31,6.66Z"/><path class="cls-2" d="M270.71,68.39V63.31h14.55v5.08H270.71Z"/><path class="cls-2" d="M296.73,38.39h4.47V72h-4.47V38.39Zm0,38.12h4.47v5.13h-4.47V76.51Z"/></g></g></svg>