<svg xmlns="http://www.w3.org/2000/svg" viewBox="0 0 716.91 245.71"><defs><style>.cls-1{fill:#fff;opacity:0.6;}</style></defs><g id="레이어_2" data-name="레이어 2"><g id="Layer_1" data-name="Layer 1"><rect class="cls-1" width="716.91" height="245.71" rx="122.85"/><path d="M132.89,158.27q-7.5,12.07-20.71,12.2-9.14,0-16.27-7.56Q87,153.49,87,138.64A35.76,35.76,0,0,1,93.69,117q7.49-10.22,18.49-10.22,13.68.14,20.82,11.41l-7.72,6.1q-4.09-6.77-13.1-6.9a12.8,12.8,0,0,0-9.48,4.25q-6.32,6.24-6.32,17a26.43,26.43,0,0,0,3,12.6q4.68,8.63,12.76,8.62t13.22-7.69Z"/><path d="M155.47,75h9.36v95.5h-9.36V75Z"/><path d="M183.9,98.71V88.1h9.47V98.71H183.9Zm0,8.09h9.36v63.67H183.9V106.8Z"/><path d="M257.84,158.27q-7.48,12.07-20.71,12.2-9.12,0-16.26-7.56-8.9-9.42-8.89-24.27A35.75,35.75,0,0,1,218.64,117q7.5-10.22,18.49-10.22,13.69.14,20.83,11.41l-7.73,6.1q-4.09-6.77-13.1-6.9a12.8,12.8,0,0,0-9.48,4.25q-6.32,6.24-6.31,17a26.31,26.31,0,0,0,3,12.6q4.68,8.63,12.75,8.62t13.22-7.69Z"/><path d="M289.78,143.94v26.53h-9.36V75h9.36v58.36h1.64l23.16-25.07L316,106.8h13.57L321.13,116l-21.05,22.68,21.05,22.68,8.43,9.15H316L314.58,169l-23.16-25.07Z"/><path d="M439.3,115.82q6.31-9,15.91-9a18.27,18.27,0,0,1,12.87,5.44q8,7.7,8,20v32.89l.12,5.44h-9.25l-.11-5.3-.12-33a19.26,19.26,0,0,0-1.76-8.09q-3.39-6.77-9.71-6.77a9.78,9.78,0,0,0-6.31,2.39q-5.16,4.38-5.15,12.47v32.89l.11,5.44h-9.24l-.12-5.3-.11-27.72v-5.31a19.26,19.26,0,0,0-1.76-8.09q-3.39-6.77-9.71-6.77a9.82,9.82,0,0,0-6.32,2.39q-5.14,4.38-5.14,12.47v38.2H402.1V106.8h9.36v4.25a18.58,18.58,0,0,1,11.46-4.25q9.6.27,16.15,9.29C439.14,116.09,439.22,116,439.3,115.82Z"/><path d="M545.18,158q-8.19,12.48-21.76,12.47-9.48,0-16.84-7.69-8.9-9.42-8.9-24.14a35.54,35.54,0,0,1,6.67-21.49q7.73-10.35,19.07-10.35,9.48,0,16.73,7.7,9,9.42,9,24.14v5.3H507.51a24.71,24.71,0,0,0,2.81,7.43q4.91,8.49,13.1,8.49,8.66,0,14.28-8.22Zm-5.38-24.67c0-2.56-1-5.35-3.16-8.35q-5.49-7.56-13.22-7.57a13.13,13.13,0,0,0-6.9,2q-7,4.13-9,13.93Z"/><path d="M566.13,143V132.4h30.42V143H566.13Z"/><path d="M620.53,80.28h9.36v70.29h-9.36V80.28Zm0,79.71h9.36v10.75h-9.36V160Z"/></g></g></svg>