<svg xmlns="http://www.w3.org/2000/svg" viewBox="0 0 18.91 279.8"><g id="레이어_2" data-name="레이어 2"><g id="Layer_1" data-name="Layer 1"><path d="M2.06,0H18V5.45a5.35,5.35,0,0,1-2.41,3.84A8.08,8.08,0,0,1,10,10.73,8.44,8.44,0,0,1,4.54,9.35a5.31,5.31,0,0,1-2.48-3.9V0ZM3.93,5.33A3.66,3.66,0,0,0,5.59,8,6.55,6.55,0,0,0,10,9.08h.07A6.85,6.85,0,0,0,14,8.26,3.79,3.79,0,0,0,16.1,5.33V1.65H3.93Z"/><path d="M13.27,14.57v1.67l-.94,0-6,0A2.41,2.41,0,0,0,5,16.59a2.27,2.27,0,0,0-1.08,2,2.2,2.2,0,0,0,.4,1.27,2.29,2.29,0,0,0,2,1.06h6l.91,0v1.67l-.94,0-6,0a4.36,4.36,0,0,1-2.67-.87A3.81,3.81,0,0,1,3.07,16a4.21,4.21,0,0,1,3.27-1.43h6Z"/><path d="M2,34.63V33L3,33l5.48,0a3.64,3.64,0,0,0,1.68-.39,2.07,2.07,0,0,0,1.29-1.88,1.86,1.86,0,0,0-.52-1.28,3.12,3.12,0,0,0-2.45-1H2.06V26.77H13.29v1.65H12.4a3.47,3.47,0,0,1,.89,2.27,3.39,3.39,0,0,1-1.08,2.46,5,5,0,0,1-3.76,1.46H3Z"/><path d="M6.74,40.91H2.06V39.26H18.91v1.65H8.61v.29L13,45.29l.26.24v2.4l-1.61-1.49-4-3.71-4,3.71L2.06,47.93v-2.4l.26-.24L6.74,41.2Z"/><path d="M13.29,50.2v1.65H2.06V50.2H13.29Zm1.43,0h1.87v1.67H14.72V50.2Z"/><path d="M2,63.84V62.21l.93,0,5.48,0a3.64,3.64,0,0,0,1.68-.39,2.08,2.08,0,0,0,1.29-1.88,1.84,1.84,0,0,0-.52-1.28,3.12,3.12,0,0,0-2.45-1H2.06V56H13.29v1.65H12.4a3.45,3.45,0,0,1,.89,2.27,3.35,3.35,0,0,1-1.08,2.45,5,5,0,0,1-3.76,1.47H3Z"/><path d="M2.06,79.09H18v5.45a5.35,5.35,0,0,1-2.41,3.84A8.13,8.13,0,0,1,10,89.83a8.39,8.39,0,0,1-5.48-1.39,5.28,5.28,0,0,1-2.48-3.9V79.09Zm1.87,5.33A3.64,3.64,0,0,0,5.59,87,6.61,6.61,0,0,0,10,88.18h.07A6.85,6.85,0,0,0,14,87.35a3.79,3.79,0,0,0,2.13-2.93V80.75H3.93Z"/><path d="M11.49,94.45a4,4,0,0,1,1.8,3.32,4,4,0,0,1-1.36,3,5.87,5.87,0,0,1-4.25,1.58,6.18,6.18,0,0,1-3.82-1.21,4,4,0,0,1-1.8-3.33,3.93,3.93,0,0,1,1.36-3,5.88,5.88,0,0,1,4.26-1.59A6.18,6.18,0,0,1,11.49,94.45Zm-6.08,1a2.59,2.59,0,0,0-1.48,2.29,2.42,2.42,0,0,0,.75,1.74,4,4,0,0,0,3,1.15,4.55,4.55,0,0,0,2.27-.59,2.61,2.61,0,0,0,1.47-2.3A2.42,2.42,0,0,0,10.67,96a4,4,0,0,0-3-1.16A4.4,4.4,0,0,0,5.41,95.48Z"/><path d="M2,114v-1.63l.93,0,5.48,0a3.65,3.65,0,0,0,1.68-.4,2.07,2.07,0,0,0,1.29-1.88,1.88,1.88,0,0,0-.52-1.28,3.12,3.12,0,0,0-2.45-1H2.06v-1.65H13.29v1.65H12.4a3.47,3.47,0,0,1,.89,2.27,3.37,3.37,0,0,1-1.08,2.46A5,5,0,0,1,8.45,114H3Z"/><path d="M13.27,118.23v1.67l-.94,0-6,0a2.41,2.41,0,0,0-1.33.39,2.25,2.25,0,0,0-1.08,2,2.23,2.23,0,0,0,.4,1.28,2.3,2.3,0,0,0,2,1.05h6l.91,0v1.67l-.94,0-6,0a4.36,4.36,0,0,1-2.67-.87,3.82,3.82,0,0,1-.6-5.7,4.2,4.2,0,0,1,3.27-1.42h6Z"/><path d="M5.36,132.22c-.92,0-1.4.52-1.43,1.51v.82H2.06v-.82a4.36,4.36,0,0,1,.14-1.1c.36-1.37,1.4-2.06,3.14-2.06h6.08v-1.38h1.87v1.38h2.46l.91,0v1.67l-.93,0H13.29v2.31H11.42v-2.31Z"/><path d="M10,142.85a1.06,1.06,0,0,0,.65-.22,1.89,1.89,0,0,0,.73-1.66,2.69,2.69,0,0,0-.14-.84,1.3,1.3,0,0,0-1.24-1,.65.65,0,0,0-.37.12,4.56,4.56,0,0,0-1,1.9,15.89,15.89,0,0,1-.59,1.53c-.67,1.45-1.61,2.18-2.81,2.16a2.94,2.94,0,0,1-1.78-.62A3.78,3.78,0,0,1,2.06,141a4.16,4.16,0,0,1,.82-2.58,3,3,0,0,1,2.43-1.26v1.66a1,1,0,0,0-.65.24A2.34,2.34,0,0,0,3.93,141a3.41,3.41,0,0,0,.14.95c.24.83.65,1.24,1.24,1.24a.69.69,0,0,0,.35-.1,4.43,4.43,0,0,0,.94-1.88c.23-.67.43-1.18.58-1.53A3.2,3.2,0,0,1,10,137.44a3.16,3.16,0,0,1,1.85.62,3.42,3.42,0,0,1,1.4,2.91,3.67,3.67,0,0,1-.77,2.3A3,3,0,0,1,10,144.5Z"/><path d="M4.54,149.75v1.65l-1-.08A5.12,5.12,0,0,1,.21,150L0,149.75v-2.56l1.66,1.73a3.33,3.33,0,0,0,2,.74Z"/><path d="M9.85,174.43a4.33,4.33,0,0,1-3.34,1.45,4.46,4.46,0,0,1-2.81-1,3.92,3.92,0,0,1-1.64-3.24v-6.11h8l7,0H18v.82l0,4.5a4,4,0,0,1-1.12,2.81,4.41,4.41,0,0,1-3.32,1.42,4.52,4.52,0,0,1-3.21-1.32A4.81,4.81,0,0,1,9.85,174.43Zm-5.94-7.2,0,4.44a2.45,2.45,0,0,0,.47,1.44,2.44,2.44,0,0,0,2.11,1.12A2.53,2.53,0,0,0,8,173.77a2.43,2.43,0,0,0,1.1-2.1v-4.44Zm7,3.67a2.54,2.54,0,0,0,.47,1.47,2.43,2.43,0,0,0,2.11,1.11,2.59,2.59,0,0,0,2.57-2.58v-3.69H10.93Z"/><path d="M11.49,180.09a4,4,0,0,1,1.8,3.32,3.92,3.92,0,0,1-1.36,3A5.88,5.88,0,0,1,7.68,188a6.12,6.12,0,0,1-3.82-1.22,4,4,0,0,1-1.8-3.32,3.93,3.93,0,0,1,1.36-2.95,5.88,5.88,0,0,1,4.26-1.59A6.18,6.18,0,0,1,11.49,180.09Zm-6.08,1a2.59,2.59,0,0,0-1.48,2.29,2.42,2.42,0,0,0,.75,1.74,4,4,0,0,0,3,1.15,4.45,4.45,0,0,0,2.27-.6,2.59,2.59,0,0,0,1.47-2.29,2.4,2.4,0,0,0-.75-1.73,4,4,0,0,0-3-1.16A4.4,4.4,0,0,0,5.41,181.12Z"/><path d="M11.49,192.16a4,4,0,0,1,1.8,3.33,4,4,0,0,1-1.36,2.95A5.88,5.88,0,0,1,7.68,200a6.18,6.18,0,0,1-3.82-1.22,4,4,0,0,1-1.8-3.32,4,4,0,0,1,1.36-3,5.88,5.88,0,0,1,4.26-1.59A6.18,6.18,0,0,1,11.49,192.16Zm-6.08,1a2.6,2.6,0,0,0-1.48,2.3,2.42,2.42,0,0,0,.75,1.73,4,4,0,0,0,3,1.16,4.45,4.45,0,0,0,2.27-.6,2.59,2.59,0,0,0,1.47-2.29,2.42,2.42,0,0,0-.75-1.74,4,4,0,0,0-3-1.15A4.39,4.39,0,0,0,5.41,193.19Z"/><path d="M6.74,205.5H2.06v-1.66H18.91v1.66H8.61v.29L13,209.87l.26.25v2.39L11.68,211l-4-3.72-4,3.72-1.61,1.48v-2.39l.26-.25,4.42-4.08Z"/><path d="M18,235.63H16.1v-8.25H11v6H9.08v-6H3.93v8.25H2.06v-9.91H18v9.91Z"/><path d="M13.29,238.65v1.77l-.58.21-7.19,2.56,7.19,2.51.58.21v1.78L12,247.23,2.64,244l-.58-.21v-1.11l.58-.21L12,239.1Z"/><path d="M4.26,258.67a4.42,4.42,0,0,1-2.2-3.84,4,4,0,0,1,1.36-3,5.91,5.91,0,0,1,4.26-1.57,6.29,6.29,0,0,1,3.79,1.17,4.09,4.09,0,0,1,1.82,3.37,3.93,3.93,0,0,1-1.36,2.95,5.88,5.88,0,0,1-4.25,1.59H6.74V252a4.24,4.24,0,0,0-1.31.5,2.58,2.58,0,0,0-1.5,2.31,3,3,0,0,0,1.45,2.52Zm4.35-.95a2.66,2.66,0,0,0,1.48-.56,2.85,2.85,0,0,0,1.33-2.33,2.36,2.36,0,0,0-.35-1.22A3.45,3.45,0,0,0,8.61,252Z"/><path d="M2,271.05v-1.63l.93,0,5.48,0a3.64,3.64,0,0,0,1.68-.39,2.08,2.08,0,0,0,1.29-1.88,1.84,1.84,0,0,0-.52-1.28,3.12,3.12,0,0,0-2.45-1H2.06v-1.65H13.29v1.65H12.4a3.45,3.45,0,0,1,.89,2.27,3.35,3.35,0,0,1-1.08,2.45A5,5,0,0,1,8.45,271H3Z"/><path d="M5.36,277.47c-.92,0-1.4.52-1.43,1.51v.82H2.06V279a4.36,4.36,0,0,1,.14-1.1c.36-1.37,1.4-2.06,3.14-2.06h6.08v-1.38h1.87v1.38h2.46l.91,0v1.67l-.93,0H13.29v2.31H11.42v-2.31Z"/></g></g></svg>