<svg xmlns="http://www.w3.org/2000/svg" viewBox="0 0 13.14 68.66"><g id="레이어_2" data-name="레이어 2"><g id="Layer_1" data-name="Layer 1"><path d="M.14.73H4.45v.76H1v9.17H.14ZM3.76,9.67h9.35v.75H3.76ZM8.59,0h1.48a3,3,0,0,1,3.07,3.31,3,3,0,0,1-3.07,3.3H8.59a3,3,0,0,1-3.07-3.3A3,3,0,0,1,8.59,0Zm.05,5.86H10A2.27,2.27,0,0,0,12.3,3.32,2.28,2.28,0,0,0,10,.76H8.64A2.27,2.27,0,0,0,6.36,3.32,2.26,2.26,0,0,0,8.64,5.86Z"/><path d="M.57,13h.85V18.3H4.93v.76H1.42v5.33H.57Zm5.22.52h.84V16l4.77-.42v.77l-4.77.41v3.81L11.4,21v.77l-4.77-.43v2.52H5.79Zm6.11.12h.84V23.74H11.9Z"/><path d="M.57,31h.85V42.43H.57Zm3.06,9,8.27.72V31.85h.84v9.74l-9.11-.78Z"/><path d="M.14,51.76h13v.75H7.52V54.7h5.59v.76H.14V54.7H6.68V52.51H.14Zm.65-6.85h6.6v4.41h4.25V44.91h.83v5.17H6.55V45.66H1.76l.64,4.86H1.57Z"/><path d="M0,67.9H3.89V59h.83v9.71H0Zm5.46,0h7.65v.76H5.46Zm.86-9.79h.83v2l4.35-.48v.75l-4.35.47v2.27l4.35.48v.77l-4.35-.49v2H6.32Zm5.63.13h.85v7.49H12Z"/></g></g></svg>