<svg xmlns="http://www.w3.org/2000/svg" viewBox="0 0 375.9 45.24"><defs><style>.cls-1{fill:#fff;}</style></defs><g id="레이어_2" data-name="레이어 2"><g id="Layer_1" data-name="Layer 1"><path class="cls-1" d="M0,44.34,7.62,1.14H21.78L16,34.26H35.4L33.6,44.34Z"/><path class="cls-1" d="M52.08,31.44a6.11,6.11,0,0,0-.12,1.2,4.71,4.71,0,0,0,1.47,3.6,5.26,5.26,0,0,0,3.75,1.38,6.36,6.36,0,0,0,2.88-.69,5.79,5.79,0,0,0,2.28-2.07H74.28a15.16,15.16,0,0,1-3.36,4.83,17.66,17.66,0,0,1-4.71,3.24,22.71,22.71,0,0,1-5.43,1.77,30.56,30.56,0,0,1-5.76.54q-6.9,0-11.1-3.39t-4.2-9.57a19.77,19.77,0,0,1,.3-3.36A21,21,0,0,1,42.63,22a19.6,19.6,0,0,1,4.71-5.37,21.45,21.45,0,0,1,6.27-3.42A21.85,21.85,0,0,1,60.84,12q7.38,0,11.46,4t4.08,10.77a24.46,24.46,0,0,1-.48,4.68Zm12.48-6.36v-.42a2.53,2.53,0,0,0,.06-.42A4.51,4.51,0,0,0,63.3,21,4.43,4.43,0,0,0,60,19.62a7,7,0,0,0-4.56,1.47,6.28,6.28,0,0,0-2.22,4Z"/><path class="cls-1" d="M99.12,44.34q-4.56.24-7.14.24-5.7,0-7.8-1.26t-2.1-4.68a31.11,31.11,0,0,1,.66-5.4L85,20.1H80.58l1.26-7.2h4.62L88.2,3.12h12.3L98.76,12.9h6l-1.26,7.2h-6l-2,11.4a9.18,9.18,0,0,0-.24,1.74A1.84,1.84,0,0,0,96,34.92a5.3,5.3,0,0,0,2.67.48h2Z"/><path class="cls-1" d="M109.32,17.94a7.07,7.07,0,0,0,4-1.86,7.34,7.34,0,0,0,1.86-4h-4.8l1.92-11h11l-1.68,9.48A14.06,14.06,0,0,1,120,15.51a14.4,14.4,0,0,1-3.09,3.9,13.82,13.82,0,0,1-4,2.52,11.78,11.78,0,0,1-4.44.87Z"/><path class="cls-1" d="M134.4,34.56a2.53,2.53,0,0,1-.06.42v.36a2.85,2.85,0,0,0,.84,2.1,4.27,4.27,0,0,0,2.94,1,6.07,6.07,0,0,0,2.91-.66,3,3,0,0,0,1.53-2.16v-.3a1.89,1.89,0,0,0-1.41-1.77,29.45,29.45,0,0,0-4.59-1.23q-2.7-.54-4.32-1A15.77,15.77,0,0,1,129,30a7,7,0,0,1-2.58-2.31,6.24,6.24,0,0,1-1-3.54,9.52,9.52,0,0,1,.18-1.74,10.22,10.22,0,0,1,2.16-4.92,12.41,12.41,0,0,1,4.08-3.24,19.39,19.39,0,0,1,5.1-1.71,28.72,28.72,0,0,1,5.34-.51,34.83,34.83,0,0,1,5.16.36,15.12,15.12,0,0,1,4.38,1.32A8,8,0,0,1,155,16.41a7.68,7.68,0,0,1,1.2,4.41,3.61,3.61,0,0,1-.06.54v.54H144.84a3,3,0,0,0-.78-2.28,3.4,3.4,0,0,0-2.4-.78,5.78,5.78,0,0,0-2.7.54,2.36,2.36,0,0,0-1.26,1.68q0,1.08,1.47,1.68a32.56,32.56,0,0,0,4.59,1.32q2.76.66,4.5,1.17a16.83,16.83,0,0,1,3.42,1.44,7.85,7.85,0,0,1,2.7,2.4,6.11,6.11,0,0,1,1,3.57,11.46,11.46,0,0,1-.12,1.62,11.51,11.51,0,0,1-5.7,8q-4.8,2.94-13.2,2.94a29,29,0,0,1-5.22-.45,14.75,14.75,0,0,1-4.44-1.53,8.18,8.18,0,0,1-3.12-2.94,8.45,8.45,0,0,1-1.14-4.5v-.6a4,4,0,0,0,.06-.66Z"/><path class="cls-1" d="M187.56,1.14h14.16l-2.46,14,14.88-14h16.62L212.1,17.4l12.72,26.94h-17l-7.32-17.22-4,3.54-2.4,13.68H179.94Z"/><path class="cls-1" d="M237.3,16.47A21.43,21.43,0,0,1,251,12q7.26,0,11.31,3.51a11.94,11.94,0,0,1,4,9.51,19.45,19.45,0,0,1-.3,3.3,21,21,0,0,1-2.64,7.44A18.46,18.46,0,0,1,258.75,41a19.94,19.94,0,0,1-6.24,3.15,24.9,24.9,0,0,1-7.29,1.05q-6.9,0-11.1-3.33t-4.2-9.51a20.83,20.83,0,0,1,.3-3.42A19.74,19.74,0,0,1,237.3,16.47Zm7.8,6.3a12.87,12.87,0,0,0-2.28,5.55,18.56,18.56,0,0,0-.3,3.12,6.27,6.27,0,0,0,1.11,4.05,3.78,3.78,0,0,0,3.09,1.35,5.48,5.48,0,0,0,4.35-2.1,13.73,13.73,0,0,0,2.55-6.42,13.8,13.8,0,0,0,.24-2.46,6.74,6.74,0,0,0-1.05-4,3.55,3.55,0,0,0-3.09-1.47A5.46,5.46,0,0,0,245.1,22.77Z"/><path class="cls-1" d="M274.08,12.9h11.34l-1.08,6.36h.12a14.63,14.63,0,0,1,4.65-5.49A11.08,11.08,0,0,1,295.38,12a7.22,7.22,0,0,1,1.08.12l.54.06-2.22,12.48-.78-.12a10.07,10.07,0,0,0-1.74-.24,8.75,8.75,0,0,0-6.21,2.1q-2.25,2.1-3.09,7.08L281,44.34H268.56Z"/><path class="cls-1" d="M317.22,44.34V41a18.9,18.9,0,0,1-5.91,3.3,21.7,21.7,0,0,1-6.69,1,11.88,11.88,0,0,1-7-1.92,6.52,6.52,0,0,1-2.73-5.7,10.78,10.78,0,0,1,.18-1.86,10.42,10.42,0,0,1,2.22-5,11.66,11.66,0,0,1,4-3.06A19.63,19.63,0,0,1,306,26.13q2.4-.45,5.76-.87a38.09,38.09,0,0,0,6-1.05,2.65,2.65,0,0,0,2.13-2.13.53.53,0,0,1,.06-.24v-.18A1.69,1.69,0,0,0,318.78,20a6.81,6.81,0,0,0-2.52-.45,7.08,7.08,0,0,0-3,.63,3.64,3.64,0,0,0-1.89,2.43h-12a10.88,10.88,0,0,1,5.46-7.89Q309.36,12,318.36,12a35.39,35.39,0,0,1,6.93.57,11.9,11.9,0,0,1,4.32,1.62,5.87,5.87,0,0,1,2.16,2.52,8.71,8.71,0,0,1,.63,3.45,30.49,30.49,0,0,1-.54,4.86l-2.58,14.7a9.13,9.13,0,0,0-.24,1.62,3.32,3.32,0,0,0,1.2,2.4l-.12.6ZM316.35,36a10.48,10.48,0,0,0,2.07-5.61,27.44,27.44,0,0,1-4.62,1.32A17.9,17.9,0,0,0,309.69,33,3.17,3.17,0,0,0,308,35.52v.18l-.06.24a1.83,1.83,0,0,0,1,1.62,4.83,4.83,0,0,0,2.58.6A5.84,5.84,0,0,0,316.35,36Z"/><path class="cls-1" d="M335.82,44.34l5.52-31.44h12.48L348.3,44.34ZM343.62,0H356.1l-1.56,8.88H342.06Z"/><path class="cls-1" d="M355.79,44.34l7.63-43.2H375.9l-7.62,43.2Z"/></g></g></svg>