<svg xmlns="http://www.w3.org/2000/svg" viewBox="0 0 576.95 54.1"><defs><style>.cls-1{fill:#fff;}</style></defs><g id="레이어_2" data-name="레이어 2"><g id="Layer_1" data-name="Layer 1"><path class="cls-1" d="M4.67,42.07H0V2.34H3.56l.7,1,20.22,29,.06-27.64V2.34h4.67V4.67l-.06,35.06v2.34H25.59l-.7-1-20.22-29v30Z"/><path class="cls-1" d="M40.84,18.52A12,12,0,0,1,58.6,17.41,13.82,13.82,0,0,1,63.1,28a14.18,14.18,0,0,1-3.45,9.53,12,12,0,0,1-17.76,1.11A13.83,13.83,0,0,1,37.39,28,14.18,14.18,0,0,1,40.84,18.52Zm2.92,15.19a7.47,7.47,0,0,0,6.49,3.68,7.26,7.26,0,0,0,4.9-1.87A9.46,9.46,0,0,0,58.43,28a10.06,10.06,0,0,0-1.7-5.66,7.46,7.46,0,0,0-6.48-3.68,7.28,7.28,0,0,0-4.91,1.87A9.46,9.46,0,0,0,42.07,28,10.06,10.06,0,0,0,43.76,33.71Z"/><path class="cls-1" d="M71.28,37.45H76v4.73H71.28V37.45Z"/><path class="cls-1" d="M86.47,14.9H81.79V12.56a10.64,10.64,0,0,1,2.75-7.18,12.13,12.13,0,0,1,9.58-4.21A12.68,12.68,0,0,1,102.3,4a10.72,10.72,0,0,1,4.15,8.59,14.12,14.12,0,0,1-3.62,9.06A51.37,51.37,0,0,1,94,29.27c-1.4,1-2.42,1.77-3,2.28q-4.44,3.45-4.44,5.9h20v4.68H81.79V39.79a13.46,13.46,0,0,1,3-8.12,54.29,54.29,0,0,1,8-7.48c1.75-1.44,3-2.51,3.85-3.21q5.09-4.62,5.09-8.42a6,6,0,0,0-1.4-3.85,7.57,7.57,0,0,0-6.26-2.87A8.66,8.66,0,0,0,89.74,7a6.2,6.2,0,0,0-3.27,5.55Z"/><path class="cls-1" d="M138.58,16.36V14h4.68v3.22a12,12,0,0,1,16.53.17A13.82,13.82,0,0,1,164.29,28a14.23,14.23,0,0,1-3.44,9.53,12,12,0,0,1-17.59,1.28V54.1h-4.68V16.36ZM145,33.71a7.47,7.47,0,0,0,6.49,3.68,7.28,7.28,0,0,0,4.91-1.87A9.45,9.45,0,0,0,159.62,28a10.06,10.06,0,0,0-1.7-5.66,7.4,7.4,0,0,0-6.42-3.68,7.58,7.58,0,0,0-4.91,1.81A9.85,9.85,0,0,0,143.26,28,10.06,10.06,0,0,0,145,33.71Z"/><path class="cls-1" d="M171.3,0H176V42.07H171.3V0Z"/><path class="cls-1" d="M183.69,18.52A11.84,11.84,0,0,1,193.1,14a12,12,0,0,1,8.18,3.22V14H206V42.07h-4.67V38.85a12.23,12.23,0,0,1-8.18,3.22,11.88,11.88,0,0,1-8.36-3.39A13.83,13.83,0,0,1,180.24,28,14.18,14.18,0,0,1,183.69,18.52Zm2.92,15.19a7.47,7.47,0,0,0,6.49,3.68,7.26,7.26,0,0,0,4.9-1.87A9.43,9.43,0,0,0,201.28,28a10.06,10.06,0,0,0-1.7-5.66,7.45,7.45,0,0,0-6.48-3.68,7.28,7.28,0,0,0-4.91,1.87A9.46,9.46,0,0,0,184.92,28,10.06,10.06,0,0,0,186.61,33.71Z"/><path class="cls-1" d="M237.56,42.13h-4.62l-.06-2.34,0-13.67a8.31,8.31,0,0,0-1.11-4.21,6,6,0,0,0-5.32-3.21A5.74,5.74,0,0,0,222.78,20,7.4,7.4,0,0,0,220,26.12v16H215.3V14H220v2.22A10.72,10.72,0,0,1,226.4,14a10.19,10.19,0,0,1,6.95,2.69,11.79,11.79,0,0,1,4.15,9.41V39.73Z"/><path class="cls-1" d="M268.23,36.58a12.88,12.88,0,0,1-10.86,5.49A12.09,12.09,0,0,1,249,38.68,13.92,13.92,0,0,1,244.51,28a14.4,14.4,0,0,1,3.33-9.46A12,12,0,0,1,257.37,14a11.87,11.87,0,0,1,8.35,3.39A13.82,13.82,0,0,1,270.22,28v2.34h-20.8a10.09,10.09,0,0,0,1.4,3.27,7.5,7.5,0,0,0,6.55,3.74,8.62,8.62,0,0,0,7.12-3.62Zm-2.69-10.87A6.09,6.09,0,0,0,264,22a8.29,8.29,0,0,0-6.6-3.33,7.24,7.24,0,0,0-3.45.87,8.68,8.68,0,0,0-4.5,6.14Z"/><path class="cls-1" d="M282.31,33.83q.06,3.45,4.27,3.56h2.34v4.68h-2.34a13.44,13.44,0,0,1-3.1-.35q-5.84-1.35-5.84-7.83V18.7h-3.92V14h3.92V7.89l.06-2.28h4.73L282.37,8V14h6.55V18.7h-6.55Z"/><path class="cls-1" d="M318,15.89h4.68v4.73H318V15.89Zm0,18.64h4.68v4.73H318V34.53Z"/><path class="cls-1" d="M350.26,2.34h4.79l.41,1.81,6,27.4L372.05,3.86l.53-1.52h3.27l.53,1.52L387,31.55l6-27.4.41-1.81h4.79l-.64,2.86-7.72,35.06-.4,1.81H385.9l-.53-1.52L374.21,11.28,363.06,40.55l-.53,1.52H359l-.4-1.81L350.9,5.2Z"/><path class="cls-1" d="M424.81,36.58a12.9,12.9,0,0,1-10.87,5.49,12.08,12.08,0,0,1-8.41-3.39A13.92,13.92,0,0,1,401.09,28a14.4,14.4,0,0,1,3.33-9.46A12,12,0,0,1,413.94,14a11.88,11.88,0,0,1,8.36,3.39A13.82,13.82,0,0,1,426.8,28v2.34H406a10.09,10.09,0,0,0,1.4,3.27,7.49,7.49,0,0,0,6.54,3.74,8.63,8.63,0,0,0,7.13-3.62Zm-2.69-10.87A6.09,6.09,0,0,0,420.55,22a8.3,8.3,0,0,0-6.61-3.33,7.23,7.23,0,0,0-3.44.87,8.68,8.68,0,0,0-4.5,6.14Z"/><path class="cls-1" d="M433.81,2.34V0h4.67V17.24A12.21,12.21,0,0,1,446.66,14,11.88,11.88,0,0,1,455,17.41,13.82,13.82,0,0,1,459.52,28a14.18,14.18,0,0,1-3.45,9.53,11.84,11.84,0,0,1-9.41,4.5,12,12,0,0,1-8.18-3.22v3.22h-4.67V2.34Zm6.31,31.37a7.51,7.51,0,0,0,6.54,3.68,7.28,7.28,0,0,0,4.91-1.87A9.45,9.45,0,0,0,454.84,28a10.05,10.05,0,0,0-1.69-5.66,7.49,7.49,0,0,0-11.4-1.81,9.53,9.53,0,0,0-3.27,7.53A10,10,0,0,0,440.12,33.71Z"/><path class="cls-1" d="M511.63,13.44a5.4,5.4,0,0,0-1.46-3.68A8.79,8.79,0,0,0,503.34,7a10,10,0,0,0-4.74,1.17Q495,10.06,495,13.44a3.05,3.05,0,0,0,.29,1.23q1,1.92,6.6,4.09c4.64,1.83,7.42,3,8.36,3.38q7.06,3.57,7.07,8.83a9.89,9.89,0,0,1-3.16,6.89,14.79,14.79,0,0,1-10.86,4.21,15.63,15.63,0,0,1-9.88-3.22q-4.14-3.33-4.15-7.88H494a5.43,5.43,0,0,0,1.75,3.74,10.66,10.66,0,0,0,7.6,2.68,12.36,12.36,0,0,0,5.55-1.28q3.8-1.94,3.79-5.14a2.61,2.61,0,0,0-.35-1.29q-1-2-6.66-4.21-6.89-2.68-8.24-3.33-7.06-3.5-7.06-8.7a10,10,0,0,1,2.8-6.9,13.15,13.15,0,0,1,10.17-4.2,13.79,13.79,0,0,1,8.76,2.92,10.1,10.1,0,0,1,4.21,8.18Z"/><path class="cls-1" d="M523.49,10.46V5.79h4.74v4.67h-4.74Zm0,3.56h4.68V42.07h-4.68V14Z"/><path class="cls-1" d="M541.14,33.83q.06,3.45,4.26,3.56h2.34v4.68H545.4a13.36,13.36,0,0,1-3.09-.35q-5.85-1.35-5.85-7.83V18.7h-3.91V14h3.91V7.89l.06-2.28h4.73l0,2.34V14h6.54V18.7H541.2Z"/><path class="cls-1" d="M575,36.58a12.9,12.9,0,0,1-10.87,5.49,12.09,12.09,0,0,1-8.42-3.39A13.92,13.92,0,0,1,551.24,28a14.4,14.4,0,0,1,3.33-9.46A12,12,0,0,1,564.1,14a11.85,11.85,0,0,1,8.35,3.39A13.82,13.82,0,0,1,577,28v2.34h-20.8a10.09,10.09,0,0,0,1.4,3.27,7.5,7.5,0,0,0,6.55,3.74,8.64,8.64,0,0,0,7.13-3.62Zm-2.69-10.87A6.11,6.11,0,0,0,570.7,22a8.29,8.29,0,0,0-6.6-3.33,7.24,7.24,0,0,0-3.45.87,8.68,8.68,0,0,0-4.5,6.14Z"/></g></g></svg>