<svg xmlns="http://www.w3.org/2000/svg" viewBox="0 0 13.11 82.69"><g id="레이어_2" data-name="레이어 2"><g id="Layer_1" data-name="Layer 1"><path d="M0,5.33H4.16V0H5V11.41H4.16V6.08H0ZM6.71.9h6.1v.75H10.87v8.1h1.94v.76H6.71Zm.83.75v8.1H10V1.65Z"/><path d="M.14,14.33H3.82v.76H1v9H.14Zm5.32-.9h.85V24.84H5.46V19.53H2.57v-.76H5.46Zm2.4.9h5.22v.76H11.42v8.1h1.66V24H7.86Zm.83.76v8.1h1.9v-8.1Z"/><path d="M.57,26.87h.85v5.32H4.93V33H1.42v5.33H.57Zm5.23.89h6.94v9.62H5.8Zm.83.76v8.1H11.9v-8.1Z"/><path d="M0,49.94H3.89V41.26h.83V50.7H0Zm5.46,0h7.65v.76H10v1.72H9.17V50.7H5.46ZM7,40.53a4,4,0,0,0,4,3.28h.81V40.65h.83v7.07h-.83V44.57H11a4,4,0,0,0-4,3.28H6.11a4.35,4.35,0,0,1,3.28-3.66,4.38,4.38,0,0,1-3.28-3.66Z"/><path d="M1.42,63.78v6H.57V58.34h.85V63H5.48v.76Zm7,4.11,3.49.23v-9h.84v9.74l-9.15-.58v-.75l4,.26V59.3h.83Z"/><path d="M5,75.29v4.94a2.39,2.39,0,0,1-2.46,2.46A2.39,2.39,0,0,1,.07,80.23V75.29a2.39,2.39,0,0,1,2.46-2.46A2.39,2.39,0,0,1,5,75.29ZM.9,80.19a1.63,1.63,0,1,0,3.26,0V75.33a1.63,1.63,0,1,0-3.26,0Zm4.59,1.5h7.62v.76H5.49Zm.93-9.16H12.8v5.63H12V73.29H7.32l.5,5.85H7Z"/></g></g></svg>