<svg xmlns="http://www.w3.org/2000/svg" viewBox="0 0 86.42 18.02"><g id="레이어_2" data-name="레이어 2"><g id="Layer_1" data-name="Layer 1"><path d="M0,9,0,1.09V0H1.09L7.82,0a5.48,5.48,0,0,1,3.57,1.27,4.74,4.74,0,0,1,.61,7,5.32,5.32,0,0,1-4.18,1.83H2.12v8H0V9ZM7.82,8a3.62,3.62,0,0,0,1.82-.48,2.65,2.65,0,0,0,1.49-2.41,2.7,2.7,0,0,0-.59-1.67A3.23,3.23,0,0,0,7.82,2.12H2.12V8Z"/><path d="M21.94,5.3H23V7.42H21.94a3.13,3.13,0,0,0-1.59.4c-1.19.65-1.79,1.88-1.8,3.68V18H16.43V5.3h2.12V6.41A5.51,5.51,0,0,1,21.94,5.3Z"/><path d="M25.88,7.34a5.46,5.46,0,0,1,8.06-.5,6.26,6.26,0,0,1,2,4.82A6.45,6.45,0,0,1,34.42,16a5.46,5.46,0,0,1-8.06.5,6.26,6.26,0,0,1-2-4.82A6.45,6.45,0,0,1,25.88,7.34Zm1.33,6.89a3.39,3.39,0,0,0,5.17.82,4.3,4.3,0,0,0,1.48-3.39,4.59,4.59,0,0,0-.77-2.57,3.37,3.37,0,0,0-2.94-1.67,3.31,3.31,0,0,0-2.23.85,4.3,4.3,0,0,0-1.48,3.39A4.61,4.61,0,0,0,27.21,14.23Z"/><path d="M48.48,15.58A5.48,5.48,0,0,1,43.79,18a5.29,5.29,0,0,1-3.68-1.51,6.35,6.35,0,0,1-2-4.85,6.56,6.56,0,0,1,1.51-4.32,5.23,5.23,0,0,1,4.18-2,5.52,5.52,0,0,1,4.72,2.28L46.76,8.8a3.38,3.38,0,0,0-3-1.38,3.06,3.06,0,0,0-2.14.85,4.27,4.27,0,0,0-1.43,3.39,4.71,4.71,0,0,0,.69,2.51,3.24,3.24,0,0,0,2.88,1.73,3.75,3.75,0,0,0,3-1.54Z"/><path d="M61.57,15.53A5.84,5.84,0,0,1,56.64,18a5.48,5.48,0,0,1-3.81-1.54,6.3,6.3,0,0,1-2-4.82,6.48,6.48,0,0,1,1.51-4.29A5.42,5.42,0,0,1,56.64,5.3a5.34,5.34,0,0,1,3.79,1.54,6.26,6.26,0,0,1,2,4.82v1.06H53a4.53,4.53,0,0,0,.64,1.48,3.4,3.4,0,0,0,3,1.7,3.93,3.93,0,0,0,3.24-1.65ZM60.35,10.6a2.74,2.74,0,0,0-.71-1.67,3.76,3.76,0,0,0-3-1.51,3.23,3.23,0,0,0-1.56.4,3.91,3.91,0,0,0-2,2.78Z"/><path d="M71.93,9a1.15,1.15,0,0,0-.29-.74,2.56,2.56,0,0,0-2.12-.82,3.69,3.69,0,0,0-1.09.16c-.88.28-1.32.75-1.32,1.4a.72.72,0,0,0,.16.43,6.27,6.27,0,0,0,2.44,1.08c.88.27,1.53.49,2,.66q2.81,1.14,2.78,3.18a3.13,3.13,0,0,1-.8,2A5.14,5.14,0,0,1,69.52,18a5.87,5.87,0,0,1-3.31-.93,3.27,3.27,0,0,1-1.62-2.76h2.12a1.1,1.1,0,0,0,.32.75,3.25,3.25,0,0,0,2.49.82,5.11,5.11,0,0,0,1.22-.16q1.59-.4,1.59-1.41a.72.72,0,0,0-.13-.39,6,6,0,0,0-2.41-1.06c-.87-.27-1.52-.49-2-.67C66,11.46,65,10.38,65,9a3.21,3.21,0,0,1,.8-2.09A4.57,4.57,0,0,1,69.52,5.3a5.09,5.09,0,0,1,2.94.87A3.33,3.33,0,0,1,74.05,9Z"/><path d="M83.91,9a1.15,1.15,0,0,0-.29-.74,2.57,2.57,0,0,0-2.12-.82,3.6,3.6,0,0,0-1.09.16c-.88.28-1.33.75-1.33,1.4a.79.79,0,0,0,.16.43,6.27,6.27,0,0,0,2.44,1.08c.88.27,1.54.49,2,.66q2.81,1.14,2.78,3.18a3.11,3.11,0,0,1-.79,2A5.16,5.16,0,0,1,81.5,18a5.88,5.88,0,0,1-3.32-.93,3.28,3.28,0,0,1-1.61-2.76h2.12a1.09,1.09,0,0,0,.31.75,3.28,3.28,0,0,0,2.5.82,5,5,0,0,0,1.21-.16q1.59-.4,1.59-1.41a.72.72,0,0,0-.13-.39,6,6,0,0,0-2.41-1.06c-.87-.27-1.52-.49-2-.67Q77,11.09,77,9a3.26,3.26,0,0,1,.8-2.09A4.59,4.59,0,0,1,81.5,5.3a5.09,5.09,0,0,1,2.94.87A3.33,3.33,0,0,1,86,9Z"/></g></g></svg>