<svg xmlns="http://www.w3.org/2000/svg" viewBox="0 0 239.68 13.3"><g id="레이어_2" data-name="레이어 2"><g id="Layer_1" data-name="Layer 1"><path d="M0,7.61V6.76H11.41v.85H6.1v2.88H5.34V7.61ZM.67,4.52C3,4.45,5.31,3.29,5.31,1.83V1.36H.9V.53h9.61v.83H6.1v.47c0,1.46,2.32,2.62,4.64,2.69v.84c-2.4-.1-4.54-1.1-5-2.46-.49,1.36-2.63,2.36-5,2.46ZM.9,13.15V8.91h.75v3.41h9v.83Z"/><path d="M14,12.51V.77h.76v4h4.8v-4h.76V12.51h-.76v-.73Zm.76-1,4.8-.61V5.63h-4.8Zm8.69,1.6V.19h.76v13Z"/><path d="M42.88,7.08H37.55V8.74h2.59a2,2,0,0,1,2,2.21,2,2,0,0,1-2,2.22H34.21a2,2,0,0,1-2-2.22,2,2,0,0,1,2-2.21H36.8V7.08H31.47V6.25H42.88ZM32.14,5.16V4.33c2.32-.08,4.64-1.23,4.64-2.66V1.36H32.37V.53H42v.83H37.57v.31c0,1.43,2.32,2.58,4.64,2.66v.83c-2.4-.08-4.54-1.08-5-2.44C36.68,4.08,34.54,5.08,32.14,5.16ZM40,9.57H34.3a1.32,1.32,0,0,0-1.36,1.37,1.33,1.33,0,0,0,1.36,1.4H40a1.39,1.39,0,0,0,0-2.77Z"/><path d="M50,3.9V3C50,1.14,51.45.16,53.27.16s3.31,1,3.31,2.87V3.9c0,1.9-1.48,2.88-3.31,2.88S50,5.8,50,3.9Zm.63,9.25V7.59h.76V9.32h8.28V7.59h.76v5.56h-.76v-.44Zm5.23-9.29V3.09C55.82,1.72,54.73,1,53.28,1s-2.56.72-2.56,2.09v.77c0,1.36,1.1,2.07,2.56,2.07S55.82,5.22,55.82,3.86Zm-4.47,8.42,8.28-.4V10.17H51.35Zm8.28-5.35V.19h.76V6.93Z"/><path d="M63.9,12.51V.76h.76V11.54l5.9-.69v.87Zm8.95.64V.19h.76v13Z"/><path d="M77.13,12.51V.83h6v.83H77.89v9.92l5.79-.69v.83Zm8.43.64V.19h.76V5.65h2.17v.84H86.32v6.66Z"/><path d="M90.39,12.74V11.68h.93v1.06Zm.09-7.16V0h.76V5.58l-.08,4h-.59Z"/><path d="M98.54,12.72v-.84h5.32V7.94h.76v3.94H110v.84Zm.55-5.8c2.29-.11,4.76-2.06,4.76-4.23V1.5H99.22V.67h10V1.5h-4.63V2.69c0,2.17,2.49,4.12,4.76,4.23v.84a5.76,5.76,0,0,1-5.15-3.67,5.76,5.76,0,0,1-5.15,3.67Z"/><path d="M112,6.52V5.68h11.41v.84Zm.9,6.63V8.34h9.61v4.81h-.75v-.44Zm0-11.91V.42h9.64l-.46,4.1h-.77l.38-3.28Zm.72,11,8.1-.4V9.17h-8.1Z"/><path d="M125.86,7V.5H132V7Zm.63,6.16V8.66h.76v3.66h8.81v.83Zm.13-7h4.63V1.34h-4.63Zm8.43,3.53V.19h.75V4h1.72v.85H135.8V9.68Z"/><path d="M143.77,11.77c3.75-1,5.92-4.18,5.9-10.11h-5.84V.83h6.59v.73c0,6.6-2.51,10.14-6.65,11.09Zm9.68,1.38V.19h.76v13Z"/><path d="M157.63,12.51V.83h6v.83h-5.23v9.92l5.79-.69v.83Zm8.43.64V.19h.76V5.65H169v.84h-2.17v6.66Z"/><path d="M170.87,12.51V5.91h4.64l.43-4.25h-5.07V.83h5.89l-.56,5.92h-4.58v4.83l6.46-.69v.83Zm6.57-4.45V7.22h3V4.3h-3V3.46h3V.19h.76v13h-.76V8.06Z"/><path d="M189.07,13.3V8.82h-5.32V8h11.4v.83h-5.32V13.3ZM184.3,5.58c2.4-.12,4.7-2.19,4.73-4V1.5h-4.6V.67h10V1.5h-4.6v.09c0,1.8,2.33,3.87,4.73,4v.83a5.65,5.65,0,0,1-5.15-3.72,5.65,5.65,0,0,1-5.15,3.72Z"/><path d="M197.3,11.34a9,9,0,0,0,2.48-6.29V.57h.76V5.05A9,9,0,0,0,203,11.34v1.11a8.13,8.13,0,0,1-2.85-5.13,8.1,8.1,0,0,1-2.86,5.13Zm5-5.34V5.18h2.51v-5h.76v13h-.76V6Zm5.1,7.15V.19h.75v13Z"/><path d="M210.61,12.72v-.84h3.14V8.36h.76v3.52h3.75V8.36H219v3.52h3v.84Zm3.79-5.06a3.28,3.28,0,0,1-3.17-3.57A3.3,3.3,0,0,1,214.4.49h3.83a3.3,3.3,0,0,1,3.17,3.6,3.28,3.28,0,0,1-3.17,3.57Zm3.77-.83a2.51,2.51,0,0,0,2.47-2.74,2.52,2.52,0,0,0-2.47-2.76h-3.7A2.54,2.54,0,0,0,212,4.09a2.53,2.53,0,0,0,2.48,2.74Z"/><path d="M228.79,3V1.93h1V3Zm0,8.2V10.12h1V11.2Z"/><path d="M239.68,6.52,232.13,11v-.8l6.93-4-6.93-4.35V1l7.55,4.72Z"/></g></g></svg>