<svg xmlns="http://www.w3.org/2000/svg" viewBox="0 0 180.49 183.52"><defs><style>.cls-1{fill:#fff;}</style></defs><g id="레이어_2" data-name="레이어 2"><g id="Layer_1" data-name="Layer 1"><path class="cls-1" d="M152.55,87.32a56.36,56.36,0,0,1-41.45,54.36A56.41,56.41,0,0,0,41.83,72.42a56.36,56.36,0,0,1,110.72,14.9Z"/><path class="cls-1" d="M96.2,144A56.74,56.74,0,0,1,41.47,72.33l.05-.21.21-.06a56.79,56.79,0,0,1,71.73,54.72,56.52,56.52,0,0,1-2,15l-.06.2-.2.06A57.18,57.18,0,0,1,96.2,144ZM42.13,72.73a56.63,56.63,0,0,0-1.92,14.59,56,56,0,0,0,70.58,54.05A56,56,0,0,0,56.72,70.81,56.63,56.63,0,0,0,42.13,72.73Z"/><path class="cls-1" d="M56.72,183.52a56.66,56.66,0,1,1,54.74-41.74A56.8,56.8,0,0,1,56.72,183.52Zm0-112.71a56,56,0,1,0,56,56A56,56,0,0,0,56.72,70.81Z"/><path class="cls-1" d="M24.82,72.2l.34.07q3.11.36,4-3.77l.16-.75,1.49.32-.16.75A8.16,8.16,0,0,1,30.31,70c-1,3.05-2.92,4.29-5.81,3.7L13,71.22l-.49,2.27-.16.75-1.49-.32.16-.75.49-2.26-3.91-.84-.74-.16.32-1.48.74.15,3.91.84L12.79,65l.17-.75,1.48.32-.16.74-.95,4.43Z"/><path class="cls-1" d="M17.63,58.38a6.71,6.71,0,0,1-.24-6.1,6.86,6.86,0,0,1,3.46-3.5,7.63,7.63,0,0,1,6.52,0l8.93,4,.75.29-.61,1.35-.7-.27-9-4a6.46,6.46,0,0,0-3.92-.45,5.3,5.3,0,0,0-4,3.15,5.37,5.37,0,0,0-.26,3.67,6.08,6.08,0,0,0,3.61,4.06l.69.31,8.24,3.65.69.31-.62,1.39L30.44,66,22.2,62.32,21.51,62,9.73,56.78,9,56.47l.62-1.39.69.31,7.44,3.3A1.8,1.8,0,0,1,17.63,58.38Z"/><path class="cls-1" d="M45,36.67a8.58,8.58,0,0,1-1.69,7.91,7.86,7.86,0,0,1-5.15,2.88,9.1,9.1,0,0,1-7.2-2.09,9.26,9.26,0,0,1-3.41-5.52,7.71,7.71,0,0,1,1.55-6.72,7.83,7.83,0,0,1,5.2-2.88,9.13,9.13,0,0,1,7.15,2.09l.59.48-.48.59-9,11.23A8.45,8.45,0,0,0,36.66,46a6.31,6.31,0,0,0,5.44-2.4A7.2,7.2,0,0,0,43.5,37Zm-5.1-3.62a6.66,6.66,0,0,0-4.31-1.43,6.56,6.56,0,0,0-5.31,2.47A6.42,6.42,0,0,0,28.84,38a7.49,7.49,0,0,0,2.48,5.71Z"/><path class="cls-1" d="M56.92,14.22a8.07,8.07,0,0,1,4.77-6.13l.68-.35.69,1.36-.68.34A7.81,7.81,0,0,0,59.44,12C58,14.05,58,16.44,59.3,19.16l.16.3.34.68,3.45,6.78.35.67-1.36.69-.34-.67-3.45-6.78-.35-.68-.15-.3L54.31,12.7,54,12l1.36-.69.34.68,1.23,2.4A1,1,0,0,0,56.92,14.22Z"/><path class="cls-1" d="M84.6,16.26a8.61,8.61,0,0,1-6,5.39,7.89,7.89,0,0,1-5.86-.71A9.15,9.15,0,0,1,68.12,15a9.32,9.32,0,0,1,.52-6.48A7.68,7.68,0,0,1,73.85,4a7.82,7.82,0,0,1,5.9.74,9.15,9.15,0,0,1,4.53,5.92l.2.73-.73.2L69.83,15.33a8.38,8.38,0,0,0,2.53,3.57,6.31,6.31,0,0,0,5.81,1.28,7.24,7.24,0,0,0,5-4.49Zm-2-5.93A6.66,6.66,0,0,0,80,6.63a6.54,6.54,0,0,0-5.74-1.14,6.41,6.41,0,0,0-3.44,2.3,7.49,7.49,0,0,0-1.37,6.07Z"/><path class="cls-1" d="M86.78,1.23l1.64,0,.2.45,6.45,14.91,5.82-15.12.23-.46,1.63,0L102.35,2,95.83,18.87l-.22.46-1,0-.2-.46L87.26,2.28Z"/><path class="cls-1" d="M109.16,4.78a7.92,7.92,0,0,1,11.52,2,9.15,9.15,0,0,1,1.22,7.35,9.47,9.47,0,0,1-3.56,5.53,7.91,7.91,0,0,1-11.52-2,9.16,9.16,0,0,1-1.22-7.35A9.47,9.47,0,0,1,109.16,4.78Zm-1.64,11a6.41,6.41,0,0,0,9.11,3.14,7.59,7.59,0,0,0,3.79-5.17A8.08,8.08,0,0,0,120,8.63a6.4,6.4,0,0,0-9.1-3.14,7.59,7.59,0,0,0-3.79,5.17A8.15,8.15,0,0,0,107.52,15.8Z"/><path class="cls-1" d="M132.63,0l1.4.6-.3.7-9.84,23.08-.3.7-1.4-.6.3-.69L132.33.7Z"/><path class="cls-1" d="M136.62,10.84l1.31.84-.44.62-5.82,9a4.83,4.83,0,0,0-.73,3.24,5.83,5.83,0,0,0,2.81,4.34,6,6,0,0,0,3.52,1,4.78,4.78,0,0,0,4.21-2.26l5.81-9,.42-.59,1.32.85-.45.62-5.82,9a6.31,6.31,0,0,1-3.63,2.68,7.22,7.22,0,0,1-6.2-1,7.56,7.56,0,0,1-3.14-4,6.29,6.29,0,0,1,.6-5.71l5.81-9Z"/><path class="cls-1" d="M146.59,34.58l-.23.25c-1.3,1.64-.94,3.43,1.08,5.39l.55.52-1.06,1.1-.54-.53a8.76,8.76,0,0,1-.82-.9q-3.1-3.69-.07-6.88l8.17-8.45L152,23.47l-.55-.53,1.06-1.09.54.52L154.72,24l2.78-2.87.52-.54,1.1,1.05-.53.55L155.81,25l3.26,3.15.55.52-1.06,1.1-.55-.53-3.25-3.14Z"/><path class="cls-1" d="M162.6,32.35l1,1.17L163,34,150,44.57l-.59.48-1-1.18.59-.48,13-10.56Zm2.39-2,1.18-1,.48.59,0,0,.48.59-1.18,1-.48-.59,0,0Z"/><path class="cls-1" d="M165.83,41.26a7.92,7.92,0,0,1,6.28,9.87A9.17,9.17,0,0,1,167.48,57,9.41,9.41,0,0,1,161,58.05a7.91,7.91,0,0,1-6.27-9.86,9.13,9.13,0,0,1,4.62-5.84A9.42,9.42,0,0,1,165.83,41.26Zm-9.26,6.2a6.41,6.41,0,0,0,3.8,8.85,7.61,7.61,0,0,0,6.37-.67,8,8,0,0,0,3.51-3.78,6.33,6.33,0,0,0-.19-5.9,6.27,6.27,0,0,0-3.61-3,7.58,7.58,0,0,0-6.37.67A8.14,8.14,0,0,0,156.57,47.46Z"/><path class="cls-1" d="M163.7,77.62l-.36-1.44.73-.23,9.5-2.43a6.4,6.4,0,0,0,3.36-2.06,5.31,5.31,0,0,0,1.26-5,5.4,5.4,0,0,0-2.07-3,6.13,6.13,0,0,0-5.34-1l-.74.18-8.73,2.21-.74.19-.37-1.48.73-.19,8.74-2.2.74-.19,6.75-1.7.73-.18.37,1.47-.73.19-2.14.54a2.1,2.1,0,0,1,.31.15,6.73,6.73,0,0,1,4,4.65,7,7,0,0,1-.57,4.89,7.6,7.6,0,0,1-5.15,4l-9.47,2.39Z"/><path class="cls-1" d="M178.67,99.72a7.93,7.93,0,0,1-1.92,11.54,9.1,9.1,0,0,1-7.34,1.25,9.42,9.42,0,0,1-5.56-3.52,7.92,7.92,0,0,1,1.92-11.53,9.14,9.14,0,0,1,7.34-1.26A9.46,9.46,0,0,1,178.67,99.72Zm-11-1.56a6.4,6.4,0,0,0-3.08,9.12,7.57,7.57,0,0,0,5.19,3.75,8,8,0,0,0,5.13-.47,6.4,6.4,0,0,0,3.09-9.12,7.66,7.66,0,0,0-5.19-3.76A8.09,8.09,0,0,0,167.64,98.16Z"/><path class="cls-1" d="M173,126.49l-.32.7-1.38-.63.31-.69,1.88-4.16-14.55-6.58-.7-.31.63-1.39.69.32,14.55,6.57.95-2.08.31-.69,1.38.63-.31.69-.95,2.11a12.89,12.89,0,0,1,3.16,2.23,5.35,5.35,0,0,1,1.31,6.43l-.31.69-1.39-.62.31-.7a4,4,0,0,0,.36-1.42c.11-2-1.24-3.72-4.07-5.22Z"/><path class="cls-1" d="M148.31,138.15l-.24-.24c-1.63-1.31-3.42-1-5.4,1l-.53.54-1.09-1.07.54-.54a7.85,7.85,0,0,1,.91-.81q3.7-3.07,6.88,0l8.37,8.24,1.63-1.65.53-.54,1.08,1.06-.53.55-1.63,1.65,2.85,2.8.54.53-1.07,1.09-.54-.54-2.84-2.8-3.18,3.23-.53.54L153,150.16l.54-.54,3.17-3.23Z"/><path class="cls-1" d="M147,153.65a6.74,6.74,0,0,1-3.07,5.28,6.92,6.92,0,0,1-4.8,1.09,7.61,7.61,0,0,1-5.49-3.52l-5.41-8.13-.47-.65,1.24-.82.45.61,5.46,8.15a6.33,6.33,0,0,0,3.07,2.48,5.29,5.29,0,0,0,5.11-.47,5.39,5.39,0,0,0,2.19-3,6.09,6.09,0,0,0-.87-5.36l-.42-.64-5-7.5-.42-.63,1.26-.85.42.64,5,7.5.43.63,7.13,10.74.42.63-1.26.84-.42-.63L147,153.3A1.7,1.7,0,0,1,147,153.65Z"/><path class="cls-1" d="M112.22,157.3a8.6,8.6,0,0,1,5.68-5.77,7.85,7.85,0,0,1,5.89.35,9.11,9.11,0,0,1,5,5.63,9.32,9.32,0,0,1-.11,6.5,7.67,7.67,0,0,1-4.91,4.82,7.83,7.83,0,0,1-5.94-.37,9.1,9.1,0,0,1-4.9-5.61l-.24-.72.72-.24,13.66-4.6a8.46,8.46,0,0,0-2.76-3.41,6.35,6.35,0,0,0-5.88-.91,7.24,7.24,0,0,0-4.72,4.8Zm2.35,5.78a7.07,7.07,0,0,0,8.67,4.31,6.44,6.44,0,0,0,3.28-2.51,7.49,7.49,0,0,0,1-6.15Z"/><path class="cls-1" d="M78,168.84a5.9,5.9,0,0,1-5.32,1.48A6,6,0,0,1,69.12,168a7.07,7.07,0,0,1-1.22-6l2.16-10.16.13-.78,1.45.3-.13.76-2.12,10.19a6.2,6.2,0,0,0,.24,3.47,4.51,4.51,0,0,0,3.36,3,4.33,4.33,0,0,0,3-.45,5.55,5.55,0,0,0,2.91-4l.16-.75,2-9.41.12-.79,1.46.31-.13.75-2,9.46-.16.74a6.2,6.2,0,0,0,.24,3.47,4.51,4.51,0,0,0,3.36,3,4.44,4.44,0,0,0,3-.45,5.57,5.57,0,0,0,2.91-4l.16-.74,2-9.42.15-.74,1.49.32-.16.74-2,9.41-.16.74-1.32,6.22-.16.74-1.48-.31.15-.75.37-1.71a6,6,0,0,1-5.28,1.44,5.47,5.47,0,0,1-1.48-.54A6.28,6.28,0,0,1,79,167.84,6.88,6.88,0,0,1,78,168.84Z"/><path class="cls-1" d="M58.92,161.93a7.93,7.93,0,0,1-10.38-5.39,9.15,9.15,0,0,1,1.07-7.37,9.45,9.45,0,0,1,5.06-4.2,7.93,7.93,0,0,1,10.38,5.38A9.17,9.17,0,0,1,64,157.73,9.51,9.51,0,0,1,58.92,161.93Zm4.89-10a6.4,6.4,0,0,0-7.72-5.75A7.58,7.58,0,0,0,50.92,150a8,8,0,0,0-1.14,5,6.41,6.41,0,0,0,7.73,5.75A7.6,7.6,0,0,0,62.68,157,8.06,8.06,0,0,0,63.81,151.92Z"/><path class="cls-1" d="M41.22,150.06a7.93,7.93,0,0,1-8.69-7.83,9.14,9.14,0,0,1,2.89-6.86,9.48,9.48,0,0,1,6-2.79,7.93,7.93,0,0,1,8.69,7.83,9.17,9.17,0,0,1-2.89,6.87A9.47,9.47,0,0,1,41.22,150.06Zm7.26-8.45a6.41,6.41,0,0,0-6-7.51,7.62,7.62,0,0,0-6,2.35A8,8,0,0,0,34.12,141a6.42,6.42,0,0,0,6,7.52,7.63,7.63,0,0,0,6-2.36A8,8,0,0,0,48.48,141.61Z"/><path class="cls-1" d="M33.57,114.45l.73,1.29-.64.41L25.15,121a6.42,6.42,0,0,0-2.7,2.88,5.27,5.27,0,0,0,.12,5.14,5.35,5.35,0,0,0,2.79,2.39,6.11,6.11,0,0,0,5.41-.48l.66-.38,7.84-4.44.66-.38.75,1.33-.66.37-7.84,4.44-.66.38-6.05,3.43-.67.37-.75-1.32.67-.37,1.91-1.09a2.06,2.06,0,0,1-.34-.07,6.73,6.73,0,0,1-5.05-3.43,7,7,0,0,1-.74-4.87,7.59,7.59,0,0,1,3.9-5.22l8.5-4.82Z"/></g></g></svg>