<svg xmlns="http://www.w3.org/2000/svg" viewBox="0 0 79.16 20.91"><g id="레이어_2" data-name="레이어 2"><g id="Layer_1" data-name="Layer 1"><path d="M4.5,12,3.18,13.06c3.71,3.65,5.53,5.11,9.69,6.86.32.34,1.06.26,1.33.77-4.66-1.22-5.78-1.94-9.14-4.58-.53-.64-1.83-1.51-2.44-2.2-.21.92-.34,2.41-.5,3.47a20.1,20.1,0,0,0,0,2.8c-.26,0-.13,1.06-.66.61a4.14,4.14,0,0,1-.26-1.72,27.83,27.83,0,0,1,.29-3.73l.13-1.09A5.11,5.11,0,0,1,0,15c.05-.37.11-.43.11-.43l.29-.66a8.49,8.49,0,0,0,1.37-.79c-.26-.48-1.06-1-1.21-1.57,0-.34.55-.26.9-.26l.58.87c.18-1.14.61-2.94.9-4.16.05-.26.16,0,.29-.26,1.09.13.24,1.69.11,2.54L3,12.18c2-1.88,4.06-4.47,4-7A2.68,2.68,0,0,0,5.09,4,3.29,3.29,0,0,0,1.22,7.28c-.11.51.21,1-.11,1.43-.37.08-.61-.18-.87-.5A4.86,4.86,0,0,1,.85,4.87,5,5,0,0,1,6.17,3.39c.77.32,1.59.85,1.75,1.64C8,7.79,6.33,10,4.5,12Z"/><path d="M17.33,13.11a3.91,3.91,0,0,1-2.57,2.6,2,2,0,0,1-1.46-.53,1.53,1.53,0,0,1-.5-.82,4.22,4.22,0,0,0-.53,2,3.17,3.17,0,0,0,.53,1.72c2.49,2.86,6.41.88,9.35.06.29.6-.56.84-.85,1l-1,.34a11.67,11.67,0,0,1-2.23.74L17,20.32a7.08,7.08,0,0,1-3.78-.66,4,4,0,0,1-1.86-3.55,11.83,11.83,0,0,1,1.19-3.42,11.11,11.11,0,0,1,1.62-2.23c.69-.69,2-1.45,2.86-.5A4.07,4.07,0,0,1,17.33,13.11Zm-1.54-2.73A6,6,0,0,0,13.3,13.3a2,2,0,0,0,.9,1.51,2,2,0,0,0,2-1.25,3.47,3.47,0,0,0,.29-2.91A1.09,1.09,0,0,0,15.79,10.38Z"/><path d="M26.7,6a9.94,9.94,0,0,1-.87,2.17,38.07,38.07,0,0,0-2.65,8.95c-.08.35-.47.27-.69.14-1.19-2.36-1.24-4.9-1.88-7.52-.29-.19-.16-.53-.16-.83a1.13,1.13,0,0,1,.59,0c.55.56.42,1.4.68,2.09a24.87,24.87,0,0,0,.9,4.69,30.76,30.76,0,0,1,2.12-6.51C25.17,8.37,26,6.17,26.65,6Z"/><path d="M31.21,17.32a3.89,3.89,0,0,1-2.41,2.23,1.92,1.92,0,0,1-1.7-1.09c-.29-2.35,1.09-4.34,2.31-6.33a3.68,3.68,0,0,1,1-1.19c.53.05.79.11.58.53A15.08,15.08,0,0,0,28,17.08c-.13.85-.13,1.41.61,1.67,1.17-.26,1.59-1.37,2-2.25a13.25,13.25,0,0,0,.9-3.36,11.33,11.33,0,0,0,0-3.39c-.37,0-.32-.21-.32-.35a.79.79,0,0,1,1.11.56A12.53,12.53,0,0,1,31.21,17.32Z"/><path d="M36.27,18.46c.08.72.26,1.25-.13,1.86a6.89,6.89,0,0,1-.61-1.86c-1-5,0-10.54.37-15.73.5-.48.85.13,1,.29C36.4,8,35.63,13.64,36.27,18.46Z"/><path d="M45.78,19.07c-.69.64-1.11-.34-1.4-.9a9.77,9.77,0,0,1-.64-4.69,11.46,11.46,0,0,1-1.48,2.65c-.4.37-.85.85-1.46.8a2,2,0,0,1-1.17-1.06c-.68-2.1-.08-4.4.06-6.55.24-.07.39-.13.74.3,0,1.8-.53,3.65-.16,5.5a1.74,1.74,0,0,0,.58.93,1.87,1.87,0,0,0,1.27-1.11,14.92,14.92,0,0,0,2-4.48c.19-.76.08-1.82.61-2.22.24.08.4.08.53.29C44.83,11.68,43.53,16.05,45.78,19.07Z"/><path d="M51.34,9.85l-.1,1.27c.42-.07.79-.21,1.27-.26l3.71-.58a2.15,2.15,0,0,0,.63.08l.06.37a21.45,21.45,0,0,1-3.58.79c-.82.16-1.62.27-2.17.43a12.37,12.37,0,0,1,0,1.32c0,1.25-.06,2.57.08,3.92-.08.35-.27.82-.69.82a1.37,1.37,0,0,1-.11-.93,31.62,31.62,0,0,1-.13-4.95,10.67,10.67,0,0,0-2.94,1.09.63.63,0,0,1-.48-.35l0-.58a18.37,18.37,0,0,1,3.47-1c.1-.66.1-1.43.18-2.2.22-1.54.43-3.26.61-5,.24-.19.58.13.77.21C52,6.07,51.4,8,51.34,9.85Z"/><path d="M58.15,5.4a.7.7,0,0,1-.45-.26,10.25,10.25,0,0,1-1-5.14.76.76,0,0,1,.77.53A12.14,12.14,0,0,0,58.71,5C58.55,5.09,58.55,5.4,58.15,5.4Zm-.61,13.12-.45.5-.26-.4a39.9,39.9,0,0,1,.9-10.09c.72.08.77.24.79.74A79.23,79.23,0,0,0,57.54,18.52Z"/><path d="M64.72,17.32a3.86,3.86,0,0,1-2.41,2.23,1.91,1.91,0,0,1-1.69-1.09c-.29-2.35,1.08-4.34,2.3-6.33a3.68,3.68,0,0,1,1-1.19c.53.05.8.11.58.53a15.08,15.08,0,0,0-2.94,5.61c-.13.85-.13,1.41.61,1.67,1.17-.26,1.59-1.37,2-2.25a12.47,12.47,0,0,0,.9-3.36,10.71,10.71,0,0,0,0-3.39c-.37,0-.31-.21-.31-.35a.79.79,0,0,1,1.11.56A12.53,12.53,0,0,1,64.72,17.32Z"/><path d="M72.72,14.81l-.31,3.84a1.82,1.82,0,0,0,.1.69,16.85,16.85,0,0,0,1.17-3.58c.32-1.48.69-3.1,1.19-4.69.56-1,.66-1.3.93-1.43a1.33,1.33,0,0,1,.92.51c.59,2.51.61,5.29,1.43,7.7.24.4.51.19.75-.16h.26a1.29,1.29,0,0,1-.74,1.06.87.87,0,0,1-1-.68c-.67-2.31-.85-5-1.38-7.47-1.27,2.17-1.25,5.35-2.36,8.15a4.37,4.37,0,0,1-1,1.73c-.74,0-.77-.93-1-1.46,0-2.81.56-5.54.67-8.4l-.11-.26a11.52,11.52,0,0,0-4.08,6.86l-.45.26c-.18-.08-.18-.34-.42-.55a10.53,10.53,0,0,1,.82-2.47,15,15,0,0,1,3.52-4.58c.37-.24.85-1.17,1.3-.53C73.28,11.12,72.86,13,72.72,14.81Z"/></g></g></svg>