<svg xmlns="http://www.w3.org/2000/svg" viewBox="0 0 21.67 163.76"><g id="레이어_2" data-name="레이어 2"><g id="Layer_1" data-name="Layer 1"><path d="M16.29,7.88a2.35,2.35,0,0,0,1.47-.51A3,3,0,0,0,18.86,5a3.22,3.22,0,0,0-.47-1.67A2.33,2.33,0,0,0,16.29,2a1.37,1.37,0,0,0-.5.11,4.52,4.52,0,0,0-1.63,2.33c-.74,1.64-1.19,2.62-1.36,3q-1.43,2.5-3.53,2.5A4.3,4.3,0,0,1,6.5,8.79,4.92,4.92,0,0,1,4.82,5,5.09,5.09,0,0,1,6.11,1.47,4.13,4.13,0,0,1,9.27,0V1.65a2.33,2.33,0,0,0-1.5.62A3.51,3.51,0,0,0,6.69,5a3.87,3.87,0,0,0,.52,2A2.32,2.32,0,0,0,9.27,8.26a1.07,1.07,0,0,0,.51-.13c.53-.23,1.09-1,1.69-2.35.71-1.62,1.16-2.59,1.33-2.91.94-1.67,2.1-2.5,3.49-2.5a4.33,4.33,0,0,1,2.76,1A4.4,4.4,0,0,1,20.73,5a4.52,4.52,0,0,1-1.17,3.1,4.23,4.23,0,0,1-3.27,1.49Z"/><path d="M16,13.33V15l-.94,0-6,0a2.41,2.41,0,0,0-1.33.4,2.29,2.29,0,0,0-.68,3.24,2.3,2.3,0,0,0,2,1h6l.91,0v1.67l-.94,0-6,0a4.36,4.36,0,0,1-2.67-.87,3.67,3.67,0,0,1-1.61-3.11,3.73,3.73,0,0,1,1-2.58A4.21,4.21,0,0,1,9.1,13.31h6Z"/><path d="M20.73,25.53h.94v1.65h-6.9a4,4,0,0,1,1.28,2.89,4,4,0,0,1-1.35,3,6,6,0,0,1-4.26,1.59A6.18,6.18,0,0,1,6.62,33.4a3.94,3.94,0,0,1-.51-6.22H4.82V25.53H20.73ZM8.17,27.76a2.6,2.6,0,0,0-1.48,2.31,2.42,2.42,0,0,0,.75,1.74,4,4,0,0,0,3,1.15,4.55,4.55,0,0,0,2.27-.59,2.61,2.61,0,0,0,1.47-2.3,2.45,2.45,0,0,0-.75-1.73,4.06,4.06,0,0,0-3-1.16A4.48,4.48,0,0,0,8.17,27.76Z"/><path d="M16.05,37.34v1.71l-.68.19L8.59,40.91l6.88,2.54.58.21v1.11l-.58.21L8.59,47.52l6.78,1.67.68.18v1.72l-1.19-.29L5.5,48.49l-.68-.19V47.12l.59-.2,7.3-2.71-7.3-2.7-.59-.21V40.13l.68-.19,9.36-2.31Z"/><path d="M14.25,55a3.94,3.94,0,0,1,.52,6.21h1.28v1.65H4.82V61.24H6.11a4,4,0,0,1-1.29-2.89,3.93,3.93,0,0,1,1.36-3,5.92,5.92,0,0,1,4.26-1.59A6.18,6.18,0,0,1,14.25,55Zm-6.08,1a2.59,2.59,0,0,0-1.48,2.29,2.38,2.38,0,0,0,.75,1.73,4,4,0,0,0,3,1.16,4.45,4.45,0,0,0,2.27-.6,2.59,2.59,0,0,0,1.47-2.29,2.4,2.4,0,0,0-.75-1.73,4,4,0,0,0-3-1.16A4.4,4.4,0,0,0,8.17,56.06Z"/><path d="M16.05,72.74v1.77l-1.26-.43L5.45,71a14.25,14.25,0,0,1-4.4-1.73,2.56,2.56,0,0,1-1-2.17V66.3H1.87v.82a1.28,1.28,0,0,0,.56,1.06,11.72,11.72,0,0,0,3.3,1.19l9.06-3,1.26-.43V67.7l-.61.19-7,2.35,7,2.31Z"/><path d="M20.73,86.73v1.69l-.72.15L9,90.7l11.09,3.73.61.19v1.15l-.61.19L9,99.69l11,2.13.72.14v1.7l-1.14-.23-14-2.72-.73-.15V99.32l.61-.18,11.72-4L5.43,91.25l-.61-.18V89.83l.73-.15,14-2.72Z"/><path d="M7,114.41a4.39,4.39,0,0,1-2.2-3.84,4,4,0,0,1,1.36-3A6,6,0,0,1,10.44,106a6.24,6.24,0,0,1,3.79,1.18,4.08,4.08,0,0,1,1.82,3.36,3.94,3.94,0,0,1-1.35,3,5.92,5.92,0,0,1-4.26,1.59H9.5v-7.35a4.61,4.61,0,0,0-1.31.5,2.61,2.61,0,0,0-1.5,2.31,3,3,0,0,0,1.45,2.52Zm4.35-1a2.59,2.59,0,0,0,1.48-.56,2.81,2.81,0,0,0,1.33-2.33,2.36,2.36,0,0,0-.35-1.22,3.49,3.49,0,0,0-2.46-1.59Z"/><path d="M20.73,118.93h.94v1.65h-6.9a4,4,0,0,1,1.28,2.89,3.94,3.94,0,0,1-1.35,3A5.92,5.92,0,0,1,10.44,128a6.18,6.18,0,0,1-3.82-1.21,4,4,0,0,1-1.8-3.33,4,4,0,0,1,1.29-2.89H4.82v-1.65H20.73ZM8.17,121.16a2.6,2.6,0,0,0-1.48,2.31,2.42,2.42,0,0,0,.75,1.74,4,4,0,0,0,3,1.15,4.45,4.45,0,0,0,2.27-.6,2.58,2.58,0,0,0,1.47-2.29,2.45,2.45,0,0,0-.75-1.73,4.06,4.06,0,0,0-3-1.16A4.48,4.48,0,0,0,8.17,121.16Z"/><path d="M12.8,136.72a1.11,1.11,0,0,0,.66-.22,1.9,1.9,0,0,0,.72-1.65A2.7,2.7,0,0,0,14,134a1.3,1.3,0,0,0-1.24-1,.65.65,0,0,0-.37.12,4.56,4.56,0,0,0-1,1.9,15.89,15.89,0,0,1-.59,1.53c-.67,1.46-1.61,2.18-2.81,2.16a3,3,0,0,1-1.78-.61,3.81,3.81,0,0,1-1.47-3.22,4.12,4.12,0,0,1,.82-2.58A3,3,0,0,1,8.07,131v1.65a1,1,0,0,0-.65.25,2.31,2.31,0,0,0-.73,1.94,3.4,3.4,0,0,0,.14.94c.24.83.65,1.24,1.24,1.24a.69.69,0,0,0,.35-.1,4.43,4.43,0,0,0,.94-1.88c.23-.67.43-1.18.59-1.53a3.17,3.17,0,0,1,2.85-2.2,3.07,3.07,0,0,1,1.85.62,3.39,3.39,0,0,1,1.4,2.91,3.66,3.66,0,0,1-.77,2.29,3.06,3.06,0,0,1-2.48,1.24Z"/><path d="M16.05,142.19v1.65H4.82v-1.65H16.05Zm1.43,0h1.87v1.68H17.48v-1.68Z"/><path d="M8.12,149.77c-.92,0-1.4.51-1.43,1.51v.82H4.82v-.82a4.36,4.36,0,0,1,.14-1.1c.36-1.38,1.4-2.06,3.14-2.06h6.08v-1.39h1.87v1.39h2.46l.91,0v1.67l-.93,0H16.05v2.31H14.18v-2.31Z"/><path d="M7,163.06a4.39,4.39,0,0,1-2.2-3.84,4,4,0,0,1,1.36-3,6,6,0,0,1,4.26-1.57,6.24,6.24,0,0,1,3.79,1.18,4.07,4.07,0,0,1,1.82,3.36,3.94,3.94,0,0,1-1.35,2.95,5.92,5.92,0,0,1-4.26,1.59H9.5v-7.35a4.33,4.33,0,0,0-1.31.5,2.61,2.61,0,0,0-1.5,2.31,3,3,0,0,0,1.45,2.52Zm4.35-.95a2.66,2.66,0,0,0,1.48-.56,2.81,2.81,0,0,0,1.33-2.33,2.36,2.36,0,0,0-.35-1.22,3.49,3.49,0,0,0-2.46-1.59Z"/></g></g></svg>