<svg xmlns="http://www.w3.org/2000/svg" viewBox="0 0 486.22 54.1"><g id="레이어_2" data-name="레이어 2"><g id="Layer_1" data-name="Layer 1"><path d="M4.67,42.07H0V2.34H3.56l.7,1,20.22,29,.06-27.64V2.34h4.67V4.67l-.06,35.06v2.34H25.59l-.7-1-20.22-29v30Z"/><path d="M40.84,18.52A12,12,0,0,1,58.6,17.41,13.82,13.82,0,0,1,63.1,28a14.18,14.18,0,0,1-3.45,9.53,12,12,0,0,1-17.76,1.11A13.83,13.83,0,0,1,37.39,28,14.18,14.18,0,0,1,40.84,18.52Zm2.92,15.19a7.47,7.47,0,0,0,6.49,3.68,7.26,7.26,0,0,0,4.9-1.87A9.46,9.46,0,0,0,58.43,28a10.06,10.06,0,0,0-1.7-5.66,7.46,7.46,0,0,0-6.48-3.68,7.28,7.28,0,0,0-4.91,1.87A9.45,9.45,0,0,0,42.07,28,10.06,10.06,0,0,0,43.76,33.71Z"/><path d="M71.28,37.45H76v4.73H71.28V37.45Z"/><path d="M92,1.17h5L95.7,4.38l-9.35,23.9,11.57.06V10.46h4.67V28.39h3.74v4.68h-3.74v9H97.92V33L83,33H79.58l1.22-3.21L91.38,2.63Z"/><path d="M138.47,16.36V14h4.67v3.22a12,12,0,0,1,16.54.17A13.82,13.82,0,0,1,164.18,28a14.18,14.18,0,0,1-3.45,9.53,11.84,11.84,0,0,1-9.41,4.5,12,12,0,0,1-8.18-3.22V54.1h-4.67V16.36Zm6.37,17.35a7.45,7.45,0,0,0,6.48,3.68,7.28,7.28,0,0,0,4.91-1.87A9.45,9.45,0,0,0,159.5,28a10.05,10.05,0,0,0-1.69-5.66,7.43,7.43,0,0,0-6.43-3.68,7.58,7.58,0,0,0-4.91,1.81A9.85,9.85,0,0,0,143.14,28,10.07,10.07,0,0,0,144.84,33.71Z"/><path d="M171.19,0h4.67V42.07h-4.67V0Z"/><path d="M183.57,18.52A11.84,11.84,0,0,1,193,14a12,12,0,0,1,8.18,3.22V14h4.67V42.07h-4.67V38.85A12.21,12.21,0,0,1,193,42.07a11.89,11.89,0,0,1-8.36-3.39A13.82,13.82,0,0,1,180.13,28,14.17,14.17,0,0,1,183.57,18.52Zm2.92,15.19A7.47,7.47,0,0,0,193,37.39a7.28,7.28,0,0,0,4.91-1.87A9.45,9.45,0,0,0,201.16,28a10.06,10.06,0,0,0-1.7-5.66A7.45,7.45,0,0,0,193,18.7a7.28,7.28,0,0,0-4.91,1.87A9.45,9.45,0,0,0,184.8,28,10.06,10.06,0,0,0,186.49,33.71Z"/><path d="M237.44,42.12h-4.61l-.06-2.33-.06-13.67a8.31,8.31,0,0,0-1.11-4.21,6,6,0,0,0-5.32-3.21A5.7,5.7,0,0,0,222.66,20a7.4,7.4,0,0,0-2.8,6.14v16h-4.68V14h4.68v2.22A10.69,10.69,0,0,1,226.28,14a10.23,10.23,0,0,1,7,2.69,11.81,11.81,0,0,1,4.14,9.41V39.73Z"/><path d="M268.12,36.57a12.88,12.88,0,0,1-10.87,5.5,12.09,12.09,0,0,1-8.42-3.39A13.92,13.92,0,0,1,244.39,28a14.4,14.4,0,0,1,3.33-9.46A12,12,0,0,1,257.25,14a11.85,11.85,0,0,1,8.35,3.39A13.82,13.82,0,0,1,270.1,28v2.34H249.3a9.9,9.9,0,0,0,1.41,3.27,7.47,7.47,0,0,0,6.54,3.74,8.64,8.64,0,0,0,7.13-3.62Zm-2.69-10.86A6.11,6.11,0,0,0,263.85,22a8.29,8.29,0,0,0-6.6-3.33,7.24,7.24,0,0,0-3.45.87,8.68,8.68,0,0,0-4.5,6.14Z"/><path d="M282.2,33.83c0,2.3,1.46,3.48,4.26,3.56h2.34v4.68h-2.34a13.51,13.51,0,0,1-3.1-.35q-5.83-1.35-5.84-7.83V18.7h-3.91V14h3.91V7.89l.06-2.28h4.73L282.25,8V14h6.55V18.7h-6.55Z"/><path d="M317.83,15.89h4.68v4.73h-4.68V15.89Zm0,18.64h4.68v4.73h-4.68V34.53Z"/><path d="M354.29,2.4H359l0,2.33-.06,24.07a7.93,7.93,0,0,0,1.93,5.2,9.15,9.15,0,0,0,7.42,3.39A9.68,9.68,0,0,0,374,35.58a7.92,7.92,0,0,0,3.62-6.78V4.67l.06-2.27h4.74l-.06,2.33-.06,24.07a12.66,12.66,0,0,1-3.51,8.77,13.79,13.79,0,0,1-10.51,4.5,14,14,0,0,1-9.59-3.63,12.34,12.34,0,0,1-4.44-9.64V4.67Z"/><path d="M413.19,3.33l.7-1h5.72L417,6,406.17,21.44l11.92,17,2.57,3.68h-5.72l-.7-1L403.31,25.53,392.39,41.07l-.71,1H386l2.57-3.68,11.92-16.95L389.58,6,387,2.34h5.73l.7,1,9.87,14Z"/><path d="M443.86,2.4h4.73l-.06,2.33,0,24.07A8,8,0,0,0,450.4,34a9.16,9.16,0,0,0,7.42,3.39,9.71,9.71,0,0,0,5.73-1.81,7.94,7.94,0,0,0,3.62-6.78V4.67l.06-2.27H472l-.06,2.33,0,24.07a12.66,12.66,0,0,1-3.51,8.77,13.79,13.79,0,0,1-10.52,4.5,14,14,0,0,1-9.58-3.63,12.34,12.34,0,0,1-4.44-9.64V4.67Z"/><path d="M481.54,2.34h4.68V42.07h-4.68V2.34Z"/></g></g></svg>