<svg xmlns="http://www.w3.org/2000/svg" viewBox="0 0 99.94 19.08"><g id="레이어_2" data-name="레이어 2"><g id="Layer_1" data-name="Layer 1"><path d="M0,1.06H2.17l.19.82L5.09,14.31,9.88,1.75l.24-.69H11.6l.24.69,4.8,12.56L19.37,1.88l.18-.82h2.18l-.3,1.3-3.49,15.9-.19.82H16.16l-.24-.69L10.86,5.11,5.8,18.39l-.24.69H4l-.18-.82L.29,2.36Z"/><path d="M33.81,16.59a5.85,5.85,0,0,1-4.93,2.49,5.52,5.52,0,0,1-3.82-1.54,6.3,6.3,0,0,1-2-4.82,6.5,6.5,0,0,1,1.51-4.29,5.45,5.45,0,0,1,4.32-2.07A5.37,5.37,0,0,1,32.67,7.9a6.26,6.26,0,0,1,2,4.82v1.06H25.28a4.5,4.5,0,0,0,.63,1.48,3.4,3.4,0,0,0,3,1.7,3.91,3.91,0,0,0,3.23-1.65Zm-1.22-4.93A2.76,2.76,0,0,0,31.87,10a3.75,3.75,0,0,0-3-1.51,3.18,3.18,0,0,0-1.56.4,3.91,3.91,0,0,0-2,2.78Z"/><path d="M37.89,1.06V0H40V7.82a5.51,5.51,0,0,1,3.71-1.46A5.33,5.33,0,0,1,47.5,7.9a6.26,6.26,0,0,1,2,4.82A6.45,6.45,0,0,1,48,17a5.37,5.37,0,0,1-4.26,2A5.44,5.44,0,0,1,40,17.62v1.46H37.89v-18Zm2.86,14.23a3.42,3.42,0,0,0,3,1.67,3.32,3.32,0,0,0,2.22-.85,4.3,4.3,0,0,0,1.48-3.39,4.58,4.58,0,0,0-.76-2.57,3.4,3.4,0,0,0-2.94-1.67,3.35,3.35,0,0,0-2.23.85A4.3,4.3,0,0,0,40,12.74,4.53,4.53,0,0,0,40.75,15.29Z"/><path d="M70.39,10a1.1,1.1,0,0,0-.29-.74A2.54,2.54,0,0,0,68,8.48a3.58,3.58,0,0,0-1.08.16c-.89.28-1.33.75-1.33,1.4a.79.79,0,0,0,.16.43,6.27,6.27,0,0,0,2.44,1.08c.88.27,1.54.49,2,.66q2.81,1.14,2.78,3.18a3.11,3.11,0,0,1-.79,2A5.17,5.17,0,0,1,68,19.08a5.87,5.87,0,0,1-3.31-.93,3.26,3.26,0,0,1-1.61-2.76h2.12a1.09,1.09,0,0,0,.31.75A3.27,3.27,0,0,0,68,17a5,5,0,0,0,1.22-.16c1.06-.27,1.59-.73,1.59-1.41a.72.72,0,0,0-.13-.39,6,6,0,0,0-2.41-1.06c-.87-.27-1.52-.49-2-.67Q63.49,12.15,63.45,10A3.26,3.26,0,0,1,64.25,8,4.59,4.59,0,0,1,68,6.36a5,5,0,0,1,2.94.87A3.33,3.33,0,0,1,72.51,10Z"/><path d="M75.69,4.74V2.62h2.15V4.74H75.69Zm0,1.62h2.12V19.08H75.69V6.36Z"/><path d="M83.7,15.34c0,1,.66,1.58,1.93,1.62h1.06v2.12H85.63a6.41,6.41,0,0,1-1.41-.16,3.23,3.23,0,0,1-2.64-3.55V8.48H79.8V6.36h1.78V3.58l0-1h2.15l0,1.06V6.36h3V8.48h-3Z"/><path d="M99,16.59a5.85,5.85,0,0,1-4.93,2.49,5.52,5.52,0,0,1-3.82-1.54,6.3,6.3,0,0,1-2-4.82,6.5,6.5,0,0,1,1.51-4.29A5.49,5.49,0,0,1,97.9,7.9a6.26,6.26,0,0,1,2,4.82v1.06H90.5a4.75,4.75,0,0,0,.64,1.48,3.4,3.4,0,0,0,3,1.7,3.92,3.92,0,0,0,3.23-1.65Zm-1.22-4.93A2.76,2.76,0,0,0,97.1,10a3.75,3.75,0,0,0-3-1.51,3.24,3.24,0,0,0-1.57.4,3.91,3.91,0,0,0-2,2.78Z"/></g></g></svg>